<svg width="20" height="20" viewBox="0 0 20 20" fill="none" xmlns="http://www.w3.org/2000/svg">
<path fill-rule="evenodd" clip-rule="evenodd" d="M11.7137 1.875C13.2452 1.87499 14.4582 1.87498 15.4076 2.00261C16.3846 2.13397 17.1754 2.41073 17.799 3.03437C18.4226 3.65801 18.6994 4.4488 18.8308 5.42582C18.9584 6.37516 18.9584 7.58818 18.9584 9.11964V10.8803C18.9584 12.4118 18.9584 13.6248 18.8308 14.5742C18.6994 15.5512 18.4226 16.342 17.799 16.9656C17.1754 17.5893 16.3846 17.866 15.4076 17.9974C14.4582 18.125 13.2452 18.125 11.7138 18.125H8.28636C8.0245 18.125 7.77191 18.125 7.5284 18.1244C7.519 18.1248 7.50954 18.125 7.50004 18.125C7.48932 18.125 7.47866 18.1247 7.46807 18.1242C6.31473 18.1206 5.36609 18.1014 4.59252 17.9974C3.6155 17.866 2.82471 17.5893 2.20108 16.9656C1.57744 16.342 1.30067 15.5512 1.16932 14.5742C1.04169 13.6248 1.04169 12.4118 1.04171 10.8804V9.11966C1.04169 7.58821 1.04169 6.37515 1.16932 5.42582C1.30067 4.4488 1.57744 3.65801 2.20108 3.03437C2.82471 2.41073 3.6155 2.13397 4.59252 2.00261C5.36609 1.89861 6.31473 1.87936 7.46807 1.8758C7.47866 1.87527 7.48932 1.875 7.50004 1.875C7.50954 1.875 7.519 1.87521 7.5284 1.87563C7.77192 1.875 8.02448 1.875 8.28634 1.875H11.7137ZM8.12504 3.12502C8.19359 3.125 8.26303 3.125 8.33337 3.125H11.6667C13.2557 3.125 14.3846 3.12633 15.241 3.24147C16.0794 3.35419 16.5624 3.56558 16.9151 3.91825C17.2678 4.27093 17.4792 4.75397 17.5919 5.59237C17.707 6.44876 17.7084 7.57765 17.7084 9.16667V10.8333C17.7084 12.4224 17.707 13.5512 17.5919 14.4076C17.4792 15.246 17.2678 15.7291 16.9151 16.0817C16.5624 16.4344 16.0794 16.6458 15.241 16.7585C14.3846 16.8737 13.2557 16.875 11.6667 16.875H8.33337C8.26303 16.875 8.19359 16.875 8.12504 16.875L8.12504 3.12502ZM6.87504 16.8702C6.01367 16.8612 5.32655 16.8348 4.75908 16.7585C3.92067 16.6458 3.43764 16.4344 3.08496 16.0817C2.73228 15.7291 2.52089 15.246 2.40817 14.4076C2.29303 13.5512 2.29171 12.4224 2.29171 10.8333V9.16667C2.29171 7.57765 2.29303 6.44876 2.40817 5.59237C2.52089 4.75397 2.73228 4.27093 3.08496 3.91825C3.43763 3.56558 3.92067 3.35419 4.75908 3.24147C5.32655 3.16517 6.01367 3.13885 6.87504 3.12977L6.87504 16.8702Z" fill="#999999"/>
</svg>
