<svg width="30" height="30" viewBox="0 0 30 30" fill="none" xmlns="http://www.w3.org/2000/svg">
<path fill-rule="evenodd" clip-rule="evenodd" d="M13.591 6.87502H16.4089C16.5892 6.8749 16.7463 6.8748 16.8947 6.89849C17.4808 6.99208 17.9879 7.35762 18.262 7.88403C18.3314 8.01727 18.381 8.16634 18.4379 8.33745L18.5309 8.61654C18.5467 8.66378 18.5512 8.67715 18.555 8.68768C18.7009 9.09111 19.0793 9.36383 19.5082 9.3747C19.5195 9.37498 19.5333 9.37503 19.5833 9.37503H22.0833C22.4285 9.37503 22.7083 9.65485 22.7083 10C22.7083 10.3452 22.4285 10.625 22.0833 10.625H7.91656C7.57139 10.625 7.29156 10.3452 7.29156 10C7.29156 9.65485 7.57139 9.37503 7.91656 9.37503H10.4166C10.4667 9.37503 10.4805 9.37498 10.4918 9.3747C10.9206 9.36383 11.299 9.09113 11.4449 8.6877C11.4488 8.67709 11.4532 8.66401 11.469 8.61654L11.562 8.33747C11.6189 8.16637 11.6685 8.01728 11.7379 7.88403C12.012 7.35762 12.5192 6.99208 13.1053 6.89849C13.2536 6.8748 13.4107 6.8749 13.591 6.87502ZM12.5067 9.37503C12.5496 9.29085 12.5877 9.20337 12.6204 9.1129C12.6303 9.08543 12.6401 9.05619 12.6526 9.01861L12.7358 8.7691C12.8117 8.54118 12.8292 8.49469 12.8466 8.46137C12.9379 8.2859 13.107 8.16405 13.3024 8.13285C13.3395 8.12693 13.3891 8.12503 13.6294 8.12503H16.3706C16.6108 8.12503 16.6605 8.12693 16.6976 8.13285C16.8929 8.16405 17.062 8.2859 17.1534 8.46137C17.1707 8.49469 17.1882 8.54117 17.2642 8.7691L17.3473 9.01846L17.3796 9.11292C17.4123 9.20338 17.4503 9.29085 17.4932 9.37503H12.5067Z" fill="#999999"/>
<path d="M9.92914 12.0418C9.90618 11.6974 9.60836 11.4368 9.26395 11.4597C8.91954 11.4827 8.65895 11.7805 8.68191 12.1249L9.06812 17.9181C9.13936 18.987 9.19691 19.8505 9.33189 20.528C9.47222 21.2324 9.7109 21.8208 10.2039 22.2821C10.6969 22.7433 11.2999 22.9423 12.0121 23.0355C12.6971 23.1251 13.5624 23.125 14.6337 23.125H15.3661C16.4374 23.125 17.3029 23.1251 17.9879 23.0355C18.7001 22.9423 19.303 22.7433 19.796 22.2821C20.289 21.8208 20.5277 21.2324 20.668 20.528C20.803 19.8505 20.8606 18.987 20.9318 17.9181L21.318 12.1249C21.341 11.7805 21.0804 11.4827 20.736 11.4597C20.3916 11.4368 20.0938 11.6974 20.0708 12.0418L19.6875 17.7911C19.6126 18.9143 19.5593 19.6958 19.4421 20.2838C19.3285 20.8542 19.1699 21.1561 18.9421 21.3692C18.7142 21.5824 18.4024 21.7206 17.8257 21.796C17.2312 21.8738 16.4479 21.875 15.3222 21.875H14.6777C13.552 21.875 12.7687 21.8738 12.1742 21.796C11.5975 21.7206 11.2857 21.5824 11.0579 21.3692C10.83 21.1561 10.6714 20.8542 10.5578 20.2838C10.4407 19.6958 10.3873 18.9143 10.3124 17.791L9.92914 12.0418Z" fill="#999999"/>
<path d="M12.8545 13.5448C13.1979 13.5105 13.5042 13.761 13.5385 14.1045L13.9552 18.2712C13.9896 18.6146 13.739 18.9209 13.3955 18.9553C13.052 18.9896 12.7458 18.739 12.7114 18.3956L12.2947 14.2289C12.2604 13.8854 12.511 13.5791 12.8545 13.5448Z" fill="#999999"/>
<path d="M17.1455 13.5448C17.489 13.5791 17.7396 13.8854 17.7052 14.2289L17.2885 18.3956C17.2542 18.739 16.9479 18.9896 16.6045 18.9553C16.261 18.9209 16.0104 18.6146 16.0447 18.2712L16.4614 14.1045C16.4958 13.761 16.802 13.5105 17.1455 13.5448Z" fill="#999999"/>
</svg>
