<svg width="30" height="30" viewBox="0 0 30 30" fill="none" xmlns="http://www.w3.org/2000/svg">
<path d="M9.61666 22.5782C9.10832 22.5782 8.63332 22.4032 8.29166 22.0782C7.85832 21.6698 7.64999 21.0532 7.72499 20.3865L8.03332 17.6865C8.09166 17.1782 8.39999 16.5031 8.75832 16.1365L15.6 8.89482C17.3083 7.08648 19.0917 7.03648 20.9 8.74482C22.7083 10.4531 22.7583 12.2365 21.05 14.0448L14.2083 21.2865C13.8583 21.6615 13.2083 22.0115 12.7 22.0948L10.0167 22.5532C9.87499 22.5615 9.74999 22.5782 9.61666 22.5782ZM18.275 8.73648C17.6333 8.73648 17.075 9.13648 16.5083 9.73648L9.66666 16.9865C9.49999 17.1615 9.30832 17.5782 9.27499 17.8198L8.96666 20.5198C8.93332 20.7948 8.99999 21.0198 9.14999 21.1615C9.29999 21.3032 9.52499 21.3532 9.79999 21.3115L12.4833 20.8532C12.725 20.8115 13.125 20.5948 13.2917 20.4198L20.1333 13.1781C21.1667 12.0781 21.5417 11.0615 20.0333 9.64482C19.3667 9.00315 18.7917 8.73648 18.275 8.73648Z" fill="#999999"/>
<path d="M19.45 15.44C19.4333 15.44 19.4083 15.44 19.3916 15.44C16.7916 15.1816 14.7 13.2066 14.3 10.6233C14.25 10.2816 14.4833 9.96498 14.825 9.90665C15.1666 9.85665 15.4833 10.09 15.5416 10.4316C15.8583 12.4483 17.4916 13.9983 19.525 14.1983C19.8666 14.2316 20.1166 14.54 20.0833 14.8816C20.0416 15.1983 19.7666 15.44 19.45 15.44Z" fill="#999999"/>
</svg>
