<svg width="20" height="20" viewBox="0 0 20 20" fill="none" xmlns="http://www.w3.org/2000/svg">
<path d="M4.55806 10.4413C4.31398 10.1972 4.31398 9.80149 4.55806 9.55741L6.22473 7.89074C6.4688 7.64666 6.86453 7.64666 7.10861 7.89074C7.35269 8.13482 7.35269 8.53055 7.10861 8.77462L6.50888 9.37435L12.5 9.37435C12.8452 9.37435 13.125 9.65417 13.125 9.99935C13.125 10.3445 12.8452 10.6243 12.5 10.6243L6.50888 10.6243L7.10861 11.2241C7.35269 11.4682 7.35269 11.8639 7.10861 12.108C6.86453 12.352 6.4688 12.352 6.22473 12.108L4.55806 10.4413Z" fill="#FF3636"/>
<path fill-rule="evenodd" clip-rule="evenodd" d="M11.6211 1.04102H12.5459C13.6856 1.041 14.6042 1.04099 15.3266 1.13812C16.0767 1.23897 16.7083 1.45471 17.2099 1.95631C17.7115 2.45791 17.9272 3.08947 18.0281 3.83956C18.1252 4.56203 18.1252 5.48063 18.1252 6.62029V13.3784C18.1252 14.5181 18.1252 15.4367 18.0281 16.1591C17.9272 16.9092 17.7115 17.5408 17.2099 18.0424C16.7083 18.544 16.0767 18.7597 15.3266 18.8606C14.6042 18.9577 13.6856 18.9577 12.5459 18.9577H11.6211C10.4815 18.9577 9.56286 18.9577 8.84039 18.8606C8.0903 18.7597 7.45874 18.544 6.95714 18.0424C6.62469 17.7099 6.41723 17.3197 6.28587 16.8742C5.49307 16.8732 4.83255 16.8644 4.29741 16.7925C3.66078 16.7069 3.10883 16.5217 2.66825 16.0811C2.22768 15.6405 2.04244 15.0886 1.95685 14.4519C1.87497 13.8429 1.87498 13.0715 1.875 12.1275V7.87127C1.87498 6.92726 1.87497 6.1558 1.95685 5.54675C2.04244 4.91013 2.22768 4.35818 2.66825 3.9176C3.10883 3.47702 3.66078 3.29179 4.29741 3.2062C4.83255 3.13425 5.49307 3.12553 6.28587 3.12449C6.41723 2.67903 6.62469 2.28876 6.95714 1.95631C7.45874 1.45471 8.0903 1.23897 8.84039 1.13812C9.56286 1.04099 10.4815 1.041 11.6211 1.04102ZM6.04331 14.1695C6.0463 14.7066 6.05516 15.1904 6.0857 15.6236C5.3903 15.6209 4.87333 15.6087 4.46397 15.5536C3.96595 15.4867 3.72175 15.3668 3.55214 15.1972C3.38252 15.0276 3.26266 14.7834 3.1957 14.2854C3.12633 13.7694 3.125 13.0824 3.125 12.0827V7.91602C3.125 6.91625 3.12633 6.22931 3.1957 5.71331C3.26266 5.2153 3.38252 4.9711 3.55214 4.80149C3.72175 4.63187 3.96595 4.51201 4.46397 4.44505C4.87333 4.39001 5.3903 4.3778 6.0857 4.37511C6.05516 4.80829 6.0463 5.29209 6.04331 5.8292C6.04138 6.17438 6.31964 6.45575 6.66482 6.45767C7.00999 6.45959 7.29136 6.18133 7.29329 5.83616C7.29836 4.92491 7.32202 4.27901 7.41207 3.78881C7.49883 3.31646 7.63814 3.04307 7.84102 2.84019C8.07166 2.60956 8.39547 2.45918 9.00695 2.37697C9.63641 2.29234 10.4707 2.29102 11.6668 2.29102H12.5002C13.6964 2.29102 14.5306 2.29234 15.1601 2.37697C15.7716 2.45918 16.0954 2.60956 16.326 2.84019C16.5566 3.07083 16.707 3.39464 16.7892 4.00612C16.8739 4.63558 16.8752 5.46984 16.8752 6.66602V13.3327C16.8752 14.5289 16.8739 15.3631 16.7892 15.9926C16.707 16.6041 16.5566 16.9279 16.326 17.1585C16.0954 17.3891 15.7716 17.5395 15.1601 17.6217C14.5306 17.7064 13.6964 17.7077 12.5002 17.7077H11.6668C10.4707 17.7077 9.63641 17.7064 9.00695 17.6217C8.39547 17.5395 8.07166 17.3891 7.84102 17.1585C7.63814 16.9556 7.49883 16.6822 7.41207 16.2099C7.32202 15.7197 7.29836 15.0738 7.29329 14.1625C7.29136 13.8174 7.00999 13.5391 6.66482 13.541C6.31964 13.5429 6.04138 13.8243 6.04331 14.1695Z" fill="#FF3636"/>
</svg>
