<svg width="30" height="31" viewBox="0 0 30 31" fill="none" xmlns="http://www.w3.org/2000/svg">
<path d="M29.7904 14.7746C30.1662 15.0472 29.9268 15.1879 29.7272 15.3486C28.1705 16.6008 26.6166 17.8564 25.0609 19.1099C24.1909 19.8108 23.3192 20.5096 22.5033 21.1652C20.8247 19.7958 19.1911 18.4632 17.5049 17.0877C18.4327 15.8012 18.4992 14.3943 17.5165 13.0218C19.1841 11.6489 20.8151 10.3062 22.5178 8.9043C24.8863 10.816 27.3231 12.7828 29.7904 14.7746Z" fill="#1B5563"/>
<path d="M13.2162 27.8455C11.8526 26.1414 10.5119 24.4748 9.19355 22.7906C9.08019 22.6458 9.00913 22.2962 9.09698 22.1914C10.3871 20.6526 11.7075 19.1392 13.0736 17.5586C14.3027 18.5486 15.7255 18.4734 17.0864 17.5636C18.4558 19.2446 19.7885 20.8807 21.1696 22.5762C19.1657 25.0383 17.1284 27.5414 15.0265 30.1239C14.3966 29.33 13.8208 28.6042 13.2162 27.8455Z" fill="#1B5563"/>
<path d="M13.1429 2.27949C11.7794 3.98362 10.4387 5.65024 9.1203 7.33435C9.00695 7.47916 8.93589 7.82877 9.02374 7.93356C10.3138 9.47238 11.6342 10.9858 13.0003 12.5664C14.2295 11.5764 15.6522 11.6516 17.0131 12.5614C18.3825 10.8804 19.7153 9.24427 21.0964 7.54883C19.0924 5.08665 17.0551 2.58357 14.9533 0.00109959C14.3234 0.795031 13.7475 1.52082 13.1429 2.27949Z" fill="#1B5563"/>
<path d="M0.197919 14.7921C-0.177936 15.0648 0.06145 15.2055 0.261123 15.3661C1.8178 16.6184 3.37169 17.874 4.92737 19.1275C5.79733 19.8284 6.66906 20.5272 7.48497 21.1827C9.16359 19.8134 10.7972 18.4808 12.4834 17.1053C11.5556 15.8188 11.4891 14.4119 12.4718 13.0394C10.8042 11.6665 9.17321 10.3237 7.47045 8.92188C5.10199 10.8336 2.66523 12.8004 0.197919 14.7921Z" fill="#1B5563"/>
</svg>
