<svg width="20" height="20" viewBox="0 0 20 20" fill="none" xmlns="http://www.w3.org/2000/svg">
<path fill-rule="evenodd" clip-rule="evenodd" d="M9.99959 1.04102C7.81347 1.04102 6.04126 2.81322 6.04126 4.99935C6.04126 7.18548 7.81347 8.95768 9.99959 8.95768C12.1857 8.95768 13.9579 7.18548 13.9579 4.99935C13.9579 2.81322 12.1857 1.04102 9.99959 1.04102ZM7.29126 4.99935C7.29126 3.50358 8.50382 2.29102 9.99959 2.29102C11.4954 2.29102 12.7079 3.50358 12.7079 4.99935C12.7079 6.49512 11.4954 7.70768 9.99959 7.70768C8.50382 7.70768 7.29126 6.49512 7.29126 4.99935Z" fill="#999999"/>
<path fill-rule="evenodd" clip-rule="evenodd" d="M9.99959 10.2077C8.30015 10.2077 6.73086 10.6 5.56472 11.2663C4.41626 11.9226 3.54126 12.9245 3.54126 14.166C3.54126 15.4076 4.41626 16.4094 5.56472 17.0657C6.73086 17.7321 8.30015 18.1243 9.99959 18.1243C11.699 18.1243 13.2683 17.7321 14.4345 17.0657C15.5829 16.4094 16.4579 15.4076 16.4579 14.166C16.4579 12.9245 15.5829 11.9226 14.4345 11.2663C13.2683 10.6 11.699 10.2077 9.99959 10.2077ZM4.79126 14.166C4.79126 13.5666 5.2221 12.9018 6.18489 12.3516C7.13 11.8116 8.47738 11.4577 9.99959 11.4577C11.5218 11.4577 12.8692 11.8116 13.8143 12.3516C14.7771 12.9018 15.2079 13.5666 15.2079 14.166C15.2079 14.7654 14.7771 15.4302 13.8143 15.9804C12.8692 16.5205 11.5218 16.8743 9.99959 16.8743C8.47738 16.8743 7.13 16.5205 6.18489 15.9804C5.2221 15.4302 4.79126 14.7654 4.79126 14.166Z" fill="#999999"/>
</svg>
