<svg width="20" height="20" viewBox="0 0 20 20" fill="none" xmlns="http://www.w3.org/2000/svg">
<rect width="12" height="10" transform="translate(4 5)" fill="#027A48"/>
<path d="M10.0003 1.66406C5.40866 1.66406 1.66699 5.40573 1.66699 9.9974C1.66699 14.5891 5.40866 18.3307 10.0003 18.3307C14.592 18.3307 18.3337 14.5891 18.3337 9.9974C18.3337 5.40573 14.592 1.66406 10.0003 1.66406ZM13.9837 8.08073L9.25866 12.8057C9.14199 12.9224 8.98366 12.9891 8.81699 12.9891C8.65033 12.9891 8.49199 12.9224 8.37533 12.8057L6.01699 10.4474C5.77533 10.2057 5.77533 9.80573 6.01699 9.56406C6.25866 9.3224 6.65866 9.3224 6.90033 9.56406L8.81699 11.4807L13.1003 7.1974C13.342 6.95573 13.742 6.95573 13.9837 7.1974C14.2253 7.43906 14.2253 7.83073 13.9837 8.08073Z" fill="#D9FDE8"/>
</svg>
