<svg width="16" height="16" viewBox="0 0 16 16" fill="none" xmlns="http://www.w3.org/2000/svg">
<g clip-path="url(#clip0_513_1681)">
<path d="M7.24638 14.3401L7.89179 14.7222V14.7222L7.24638 14.3401ZM7.41933 14.0479L6.77392 13.6659L6.77392 13.6659L7.41933 14.0479ZM5.9143 14.0479L6.55972 13.6659L6.55972 13.6659L5.9143 14.0479ZM6.08726 14.3401L5.44184 14.7222V14.7222L6.08726 14.3401ZM1.53648 11.4205L2.22939 11.1335H2.22939L1.53648 11.4205ZM4.19303 13.0567L4.21701 12.307H4.21701L4.19303 13.0567ZM2.97967 12.8637L2.69266 13.5566H2.69266L2.97967 12.8637ZM11.7972 11.4205L12.4901 11.7075V11.7075L11.7972 11.4205ZM9.1406 13.0567L9.11663 12.307L9.1406 13.0567ZM10.354 12.8637L10.641 13.5566L10.354 12.8637ZM10.7268 4.39296L11.1187 3.75348V3.75348L10.7268 4.39296ZM11.6072 5.27334L12.2467 4.88147V4.88147L11.6072 5.27334ZM2.60683 4.39296L2.21496 3.75348V3.75348L2.60683 4.39296ZM1.72646 5.27334L1.08697 4.88147L1.08697 4.88147L1.72646 5.27334ZM5.27775 13.2149L4.8959 13.8604H4.8959L5.27775 13.2149ZM7.24638 14.3401L7.89179 14.7222L8.06475 14.43L7.41933 14.0479L6.77392 13.6659L6.60096 13.9581L7.24638 14.3401ZM5.9143 14.0479L5.26889 14.43L5.44184 14.7222L6.08726 14.3401L6.73267 13.9581L6.55972 13.6659L5.9143 14.0479ZM7.24638 14.3401L6.60096 13.9581C6.60791 13.9464 6.62071 13.9336 6.63598 13.9253C6.64917 13.9182 6.65979 13.9167 6.66682 13.9167C6.67384 13.9167 6.68446 13.9182 6.69765 13.9253C6.71292 13.9336 6.72572 13.9464 6.73267 13.9581L6.08726 14.3401L5.44184 14.7222C5.98994 15.6482 7.34369 15.6482 7.89179 14.7222L7.24638 14.3401ZM5.86683 4V4.75H7.46683V4V3.25H5.86683V4ZM12.0002 8.53335H11.2502V9.06669H12.0002H12.7502V8.53335H12.0002ZM1.3335 9.06669H2.0835V8.53335H1.3335H0.583496V9.06669H1.3335ZM1.3335 9.06669H0.583496C0.583496 9.67768 0.58309 10.1735 0.610609 10.5768C0.638588 10.9869 0.697918 11.3559 0.843574 11.7075L1.53648 11.4205L2.22939 11.1335C2.17206 10.9951 2.1299 10.8084 2.10713 10.4747C2.0839 10.1343 2.0835 9.69821 2.0835 9.06669H1.3335ZM4.19303 13.0567L4.21701 12.307C3.69477 12.2903 3.44569 12.245 3.26669 12.1708L2.97967 12.8637L2.69266 13.5566C3.13435 13.7396 3.6112 13.7884 4.16906 13.8063L4.19303 13.0567ZM1.53648 11.4205L0.843574 11.7075C1.19034 12.5447 1.85548 13.2099 2.69266 13.5566L2.97967 12.8637L3.26669 12.1708C2.79705 11.9763 2.42392 11.6031 2.22939 11.1335L1.53648 11.4205ZM12.0002 9.06669H11.2502C11.2502 9.69821 11.2498 10.1343 11.2265 10.4747C11.2038 10.8084 11.1616 10.9951 11.1043 11.1335L11.7972 11.4205L12.4901 11.7075C12.6357 11.3559 12.6951 10.9869 12.723 10.5768C12.7506 10.1735 12.7502 9.67768 12.7502 9.06669H12.0002ZM9.1406 13.0567L9.16458 13.8063C9.72244 13.7884 10.1993 13.7396 10.641 13.5566L10.354 12.8637L10.067 12.1708C9.88796 12.245 9.63888 12.2903 9.11663 12.307L9.1406 13.0567ZM11.7972 11.4205L11.1043 11.1335C10.9097 11.6031 10.5366 11.9763 10.067 12.1708L10.354 12.8637L10.641 13.5566C11.4782 13.2099 12.1433 12.5447 12.4901 11.7075L11.7972 11.4205ZM7.46683 4V4.75C8.35426 4.75 8.96718 4.75079 9.44005 4.79575C9.90177 4.83965 10.152 4.92031 10.3349 5.03244L10.7268 4.39296L11.1187 3.75348C10.6604 3.47265 10.1535 3.35683 9.58203 3.30249C9.02168 3.24921 8.32522 3.25 7.46683 3.25V4ZM12.0002 8.53335H12.7502C12.7502 7.67496 12.751 6.97849 12.6977 6.41814C12.6433 5.84662 12.5275 5.33974 12.2467 4.88147L11.6072 5.27334L10.9677 5.66521C11.0798 5.84819 11.1605 6.0984 11.2044 6.56012C11.2494 7.033 11.2502 7.64591 11.2502 8.53335H12.0002ZM10.7268 4.39296L10.3349 5.03244C10.5928 5.19048 10.8097 5.40731 10.9677 5.66522L11.6072 5.27334L12.2467 4.88147C11.965 4.42174 11.5784 4.03521 11.1187 3.75348L10.7268 4.39296ZM5.86683 4V3.25C5.00844 3.25 4.31198 3.24921 3.75162 3.30249C3.18011 3.35683 2.67323 3.47265 2.21496 3.75348L2.60683 4.39296L2.99871 5.03244C3.18169 4.92031 3.43189 4.83965 3.8936 4.79575C4.36648 4.75079 4.97939 4.75 5.86683 4.75V4ZM1.3335 8.53335H2.0835C2.0835 7.64591 2.08429 7.033 2.12925 6.56012C2.17315 6.0984 2.25381 5.84819 2.36594 5.66521L1.72646 5.27334L1.08697 4.88147C0.806145 5.33974 0.690323 5.84662 0.635983 6.41814C0.582705 6.97849 0.583496 7.67496 0.583496 8.53335H1.3335ZM2.60683 4.39296L2.21496 3.75348C1.75523 4.03521 1.3687 4.42174 1.08697 4.88147L1.72646 5.27334L2.36594 5.66521C2.52398 5.40732 2.74081 5.19048 2.99871 5.03244L2.60683 4.39296ZM5.9143 14.0479L6.55972 13.6659C6.42821 13.4437 6.30405 13.2325 6.18169 13.064C6.05042 12.8833 5.88945 12.7053 5.65959 12.5694L5.27775 13.2149L4.8959 13.8604C4.89593 13.8604 4.89593 13.8604 4.8959 13.8604C4.89589 13.8604 4.89588 13.8604 4.89587 13.8604C4.89587 13.8604 4.89586 13.8604 4.89586 13.8604C4.89586 13.8604 4.89585 13.8604 4.89585 13.8604C4.89586 13.8604 4.89586 13.8604 4.89586 13.8604C4.89587 13.8604 4.89587 13.8604 4.89588 13.8604C4.8959 13.8604 4.89593 13.8604 4.89598 13.8605C4.89606 13.8605 4.89622 13.8606 4.89646 13.8608C4.89727 13.8615 4.90008 13.8637 4.90512 13.8687C4.91588 13.8793 4.93595 13.9013 4.96805 13.9455C5.03947 14.0439 5.12321 14.1838 5.26889 14.43L5.9143 14.0479ZM4.19303 13.0567L4.16906 13.8063C4.47051 13.8159 4.64726 13.8223 4.77777 13.8382C4.89647 13.8527 4.90962 13.8685 4.8959 13.8604L5.27775 13.2149L5.65959 12.5694C5.4251 12.4307 5.18387 12.3766 4.95939 12.3492C4.74673 12.3233 4.49151 12.3158 4.21701 12.307L4.19303 13.0567ZM7.41933 14.0479L8.06475 14.43C8.21042 14.1838 8.29416 14.0439 8.36559 13.9455C8.39768 13.9013 8.41775 13.8793 8.42851 13.8687C8.43356 13.8637 8.43637 13.8615 8.43717 13.8608C8.43741 13.8606 8.43757 13.8605 8.43766 13.8605C8.4377 13.8604 8.43773 13.8604 8.43775 13.8604C8.43776 13.8604 8.43777 13.8604 8.43777 13.8604C8.43778 13.8604 8.43778 13.8604 8.43778 13.8604C8.43778 13.8604 8.43778 13.8604 8.43778 13.8604C8.43777 13.8604 8.43777 13.8604 8.43776 13.8604C8.43775 13.8604 8.43774 13.8604 8.43773 13.8604C8.43771 13.8604 8.4377 13.8604 8.43773 13.8604L8.05589 13.2149L7.67405 12.5694C7.44418 12.7053 7.28321 12.8833 7.15194 13.064C7.02958 13.2325 6.90543 13.4437 6.77392 13.6659L7.41933 14.0479ZM9.1406 13.0567L9.11663 12.307C8.84213 12.3158 8.58691 12.3233 8.37424 12.3492C8.14977 12.3766 7.90854 12.4307 7.67405 12.5694L8.05589 13.2149L8.43773 13.8604C8.42402 13.8685 8.43716 13.8527 8.55586 13.8382C8.68637 13.8223 8.86312 13.8159 9.16458 13.8063L9.1406 13.0567Z" fill="#1B3249"/>
<path d="M14.4765 8.29023L15.1694 8.57725V8.57725L14.4765 8.29023ZM13.1235 9.64323L13.4105 10.3361H13.4105L13.1235 9.64323ZM13.473 1.7019L13.0812 2.34138L13.473 1.7019ZM14.2984 2.52725L14.9379 2.13538V2.13538L14.2984 2.52725ZM5.86055 1.7019L5.46867 1.06242V1.06242L5.86055 1.7019ZM5.03519 2.52725L4.39571 2.13538L4.39571 2.13538L5.03519 2.52725ZM8.91679 1.3335V2.0835H10.4168V1.3335V0.583496H8.91679V1.3335ZM14.6668 5.58351H13.9168V6.08352H14.6668H15.4168V5.58351H14.6668ZM14.6668 6.08352H13.9168C13.9168 6.67621 13.9164 7.08317 13.8947 7.40036C13.8736 7.71082 13.8346 7.88013 13.7836 8.00322L14.4765 8.29023L15.1694 8.57725C15.3087 8.24091 15.3649 7.88929 15.3913 7.50247C15.4172 7.12237 15.4168 6.65568 15.4168 6.08352H14.6668ZM14.4765 8.29023L13.7836 8.00322C13.606 8.43203 13.2653 8.77271 12.8365 8.95032L13.1235 9.64323L13.4105 10.3361C14.2069 10.0063 14.8395 9.37359 15.1694 8.57725L14.4765 8.29023ZM10.4168 1.3335V2.0835C11.2497 2.0835 11.8217 2.08429 12.2623 2.12618C12.6917 2.16701 12.9182 2.24153 13.0812 2.34138L13.473 1.7019L13.8649 1.06242C13.4267 0.793866 12.9435 0.684184 12.4042 0.632914C11.8762 0.582705 11.2206 0.583496 10.4168 0.583496V1.3335ZM14.6668 5.58351H15.4168C15.4168 4.77968 15.4176 4.12413 15.3674 3.59606C15.3161 3.05684 15.2064 2.57362 14.9379 2.13538L14.2984 2.52725L13.6589 2.91913C13.7588 3.08207 13.8333 3.30862 13.8741 3.73804C13.916 4.17863 13.9168 4.75063 13.9168 5.58351H14.6668ZM13.473 1.7019L13.0812 2.34138C13.3166 2.48567 13.5146 2.68365 13.6589 2.91913L14.2984 2.52725L14.9379 2.13538C14.6699 1.69808 14.3022 1.3304 13.8649 1.06242L13.473 1.7019ZM8.91679 1.3335V0.583496C8.11296 0.583496 7.45742 0.582705 6.92935 0.632914C6.39013 0.684184 5.90691 0.793866 5.46867 1.06242L5.86055 1.7019L6.25242 2.34138C6.41536 2.24153 6.64191 2.16701 7.07133 2.12618C7.51192 2.08429 8.08391 2.0835 8.91679 2.0835V1.3335ZM5.86055 1.7019L5.46867 1.06242C5.03137 1.3304 4.66369 1.69808 4.39571 2.13538L5.03519 2.52725L5.67467 2.91913C5.81897 2.68365 6.01695 2.48567 6.25242 2.34138L5.86055 1.7019ZM4.68896 4.00016L5.43795 4.03912C5.47071 3.40945 5.55172 3.11977 5.67467 2.91913L5.03519 2.52725L4.39571 2.13538C4.0706 2.66592 3.97603 3.26804 3.93998 3.9612L4.68896 4.00016ZM12.0002 9.82366L12.0251 10.5732C12.5425 10.556 12.992 10.5095 13.4105 10.3361L13.1235 9.64323L12.8365 8.95032C12.6786 9.01572 12.4548 9.05813 11.9753 9.07407L12.0002 9.82366Z" fill="#1B3249"/>
<path d="M4.33936 8.6665H4.34536M6.6665 8.6665H6.6725M8.99384 8.6665H8.99984" stroke="#1B3249" stroke-width="2" stroke-linecap="round" stroke-linejoin="round"/>
</g>
<defs>
<clipPath id="clip0_513_1681">
<rect width="16" height="16" fill="white"/>
</clipPath>
</defs>
</svg>
