<svg width="20" height="20" viewBox="0 0 20 20" fill="none" xmlns="http://www.w3.org/2000/svg">
<path d="M12.7 1.66992H9.45487C7.98466 1.66991 6.82015 1.6699 5.90878 1.79292C4.97084 1.91953 4.21169 2.18629 3.613 2.78739C3.0143 3.38848 2.74861 4.15069 2.62251 5.09239C2.49998 6.00742 2.49999 7.1766 2.5 8.65271V13.5173C2.5 14.7741 3.26663 15.8511 4.35597 16.3026C4.2999 15.5447 4.29995 14.4813 4.3 13.5966L4.3 9.50125L4.3 9.42193C4.29994 8.35388 4.29989 7.43362 4.39857 6.69668C4.50433 5.9069 4.74282 5.14985 5.35442 4.5358C5.96601 3.92175 6.72003 3.6823 7.50665 3.57612C8.24064 3.47704 9.15722 3.47709 10.221 3.47715L10.3 3.47715H12.7L12.779 3.47715C13.8428 3.47709 14.7574 3.47704 15.4914 3.57612C15.0523 2.45975 13.968 1.66992 12.7 1.66992Z" fill="#457CE8"/>
<path d="M5.5 9.49701C5.5 7.22518 5.5 6.08927 6.20294 5.3835C6.90589 4.67773 8.03726 4.67773 10.3 4.67773H12.7C14.9627 4.67773 16.0941 4.67773 16.7971 5.3835C17.5 6.08927 17.5 7.22518 17.5 9.49701V13.5131C17.5 15.7849 17.5 16.9208 16.7971 17.6266C16.0941 18.3324 14.9627 18.3324 12.7 18.3324H10.3C8.03726 18.3324 6.90589 18.3324 6.20294 17.6266C5.5 16.9208 5.5 15.7849 5.5 13.5131V9.49701Z" fill="#457CE8"/>
</svg>
