<svg width="26" height="26" viewBox="0 0 26 26" fill="none" xmlns="http://www.w3.org/2000/svg">
<path fill-rule="evenodd" clip-rule="evenodd" d="M15.5 4.04492H12.1197C10.5882 4.04491 9.37516 4.0449 8.42582 4.17253C7.4488 4.30389 6.65801 4.58066 6.03437 5.20429C5.41073 5.82793 5.13397 6.61872 5.00261 7.59574C4.87498 8.54508 4.87499 9.7581 4.875 11.2896V16.3366C4.875 17.8968 6.01838 19.1899 7.51293 19.4239C7.6279 20.0605 7.84794 20.6039 8.29029 21.0463C8.79189 21.5479 9.42345 21.7636 10.1735 21.8645C10.896 21.9616 11.8146 21.9616 12.9543 21.9616H15.5457C16.6854 21.9616 17.604 21.9616 18.3265 21.8645C19.0766 21.7636 19.7081 21.5479 20.2097 21.0463C20.7113 20.5447 20.9271 19.9131 21.0279 19.163C21.125 18.4406 21.125 17.522 21.125 16.3823V12.1242C21.125 10.9845 21.125 10.0659 21.0279 9.34346C20.9271 8.59337 20.7113 7.96181 20.2097 7.46021C19.7674 7.01786 19.2239 6.79783 18.5873 6.68285C18.3534 5.1883 17.0602 4.04492 15.5 4.04492ZM17.2744 6.56256C17.0221 5.82512 16.323 5.29492 15.5 5.29492H12.1667C10.5777 5.29492 9.44876 5.29625 8.59238 5.41139C7.75397 5.52411 7.27093 5.7355 6.91825 6.08817C6.56558 6.44085 6.35419 6.92389 6.24147 7.7623C6.12633 8.61868 6.125 9.74757 6.125 11.3366V16.3366C6.125 17.1596 6.6552 17.8587 7.39264 18.111C7.37498 17.6027 7.37499 17.028 7.375 16.3823V12.1242C7.37498 10.9845 7.37497 10.0659 7.4721 9.34346C7.57295 8.59337 7.7887 7.96181 8.29029 7.46021C8.79189 6.95862 9.42345 6.74287 10.1735 6.64203C10.896 6.54489 11.8146 6.54491 12.9543 6.54492H15.5457C16.1914 6.54491 16.7661 6.5449 17.2744 6.56256ZM9.17418 8.3441C9.40481 8.11346 9.72862 7.96309 10.3401 7.88088C10.9696 7.79625 11.8038 7.79492 13 7.79492H15.5C16.6962 7.79492 17.5304 7.79625 18.1599 7.88088C18.7714 7.96309 19.0952 8.11346 19.3258 8.3441C19.5565 8.57473 19.7068 8.89854 19.789 9.51002C19.8737 10.1395 19.875 10.9737 19.875 12.1699V16.3366C19.875 17.5328 19.8737 18.367 19.789 18.9965C19.7068 19.608 19.5565 19.9318 19.3258 20.1624C19.0952 20.3931 18.7714 20.5434 18.1599 20.6256C17.5304 20.7103 16.6962 20.7116 15.5 20.7116H13C11.8038 20.7116 10.9696 20.7103 10.3401 20.6256C9.72862 20.5434 9.40481 20.3931 9.17418 20.1624C8.94354 19.9318 8.79317 19.608 8.71096 18.9965C8.62633 18.367 8.625 17.5328 8.625 16.3366V12.1699C8.625 10.9737 8.62633 10.1395 8.71096 9.51002C8.79317 8.89854 8.94354 8.57473 9.17418 8.3441Z" fill="#1B3249"/>
</svg>
