<svg width="20" height="20" viewBox="0 0 20 20" fill="none" xmlns="http://www.w3.org/2000/svg">
<path d="M7.16667 2.5C6.25 2.5 5.5 3.25 5.5 4.16667C5.5 5.08333 6.25 5.83333 7.16667 5.83333C8.08333 5.83333 8.83333 5.08333 8.83333 4.16667C8.83333 3.25 8.08333 2.5 7.16667 2.5ZM7.16667 14.1667C6.25 14.1667 5.5 14.9167 5.5 15.8333C5.5 16.75 6.25 17.5 7.16667 17.5C8.08333 17.5 8.83333 16.75 8.83333 15.8333C8.83333 14.9167 8.08333 14.1667 7.16667 14.1667ZM7.16667 8.33333C6.25 8.33333 5.5 9.08333 5.5 10C5.5 10.9167 6.25 11.6667 7.16667 11.6667C8.08333 11.6667 8.83333 10.9167 8.83333 10C8.83333 9.08333 8.08333 8.33333 7.16667 8.33333Z" fill="#5B6871"/>
<path d="M12.4997 2.5C11.583 2.5 10.833 3.25 10.833 4.16667C10.833 5.08333 11.583 5.83333 12.4997 5.83333C13.4163 5.83333 14.1663 5.08333 14.1663 4.16667C14.1663 3.25 13.4163 2.5 12.4997 2.5ZM12.4997 14.1667C11.583 14.1667 10.833 14.9167 10.833 15.8333C10.833 16.75 11.583 17.5 12.4997 17.5C13.4163 17.5 14.1663 16.75 14.1663 15.8333C14.1663 14.9167 13.4163 14.1667 12.4997 14.1667ZM12.4997 8.33333C11.583 8.33333 10.833 9.08333 10.833 10C10.833 10.9167 11.583 11.6667 12.4997 11.6667C13.4163 11.6667 14.1663 10.9167 14.1663 10C14.1663 9.08333 13.4163 8.33333 12.4997 8.33333Z" fill="#5B6871"/>
</svg>
