<svg width="20" height="20" viewBox="0 0 20 20" fill="none" xmlns="http://www.w3.org/2000/svg">
<path d="M4.61666 17.5782C4.10832 17.5782 3.63332 17.4032 3.29166 17.0782C2.85832 16.6698 2.64999 16.0532 2.72499 15.3865L3.03332 12.6865C3.09166 12.1782 3.39999 11.5031 3.75832 11.1365L10.6 3.89482C12.3083 2.08648 14.0917 2.03648 15.9 3.74482C17.7083 5.45315 17.7583 7.23648 16.05 9.04482L9.20832 16.2865C8.85832 16.6615 8.20832 17.0115 7.69999 17.0948L5.01666 17.5532C4.87499 17.5615 4.74999 17.5782 4.61666 17.5782ZM13.275 3.73648C12.6333 3.73648 12.075 4.13648 11.5083 4.73648L4.66666 11.9865C4.49999 12.1615 4.30832 12.5782 4.27499 12.8198L3.96666 15.5198C3.93332 15.7948 3.99999 16.0198 4.14999 16.1615C4.29999 16.3032 4.52499 16.3532 4.79999 16.3115L7.48332 15.8532C7.72499 15.8115 8.12499 15.5948 8.29166 15.4198L15.1333 8.17815C16.1667 7.07815 16.5417 6.06148 15.0333 4.64482C14.3667 4.00315 13.7917 3.73648 13.275 3.73648Z" fill="#5B6871"/>
<path d="M14.45 10.44C14.4333 10.44 14.4083 10.44 14.3916 10.44C11.7916 10.1816 9.69996 8.20665 9.29996 5.62331C9.24996 5.28165 9.48329 4.96498 9.82496 4.90665C10.1666 4.85665 10.4833 5.08998 10.5416 5.43165C10.8583 7.44831 12.4916 8.99831 14.525 9.19831C14.8666 9.23165 15.1166 9.53998 15.0833 9.88165C15.0416 10.1983 14.7666 10.44 14.45 10.44Z" fill="#5B6871"/>
</svg>
