<svg width="24" height="24" viewBox="0 0 24 24" fill="none" xmlns="http://www.w3.org/2000/svg">
<path d="M5.53999 21.0938C4.92999 21.0938 4.35999 20.8838 3.94999 20.4938C3.42999 20.0038 3.17999 19.2638 3.26999 18.4638L3.63999 15.2238C3.70999 14.6138 4.07999 13.8038 4.50999 13.3638L12.72 4.67378C14.77 2.50378 16.91 2.44378 19.08 4.49378C21.25 6.54378 21.31 8.68378 19.26 10.8538L11.05 19.5438C10.63 19.9938 9.84999 20.4138 9.23999 20.5138L6.01999 21.0638C5.84999 21.0738 5.69999 21.0938 5.53999 21.0938ZM15.93 4.48378C15.16 4.48378 14.49 4.96378 13.81 5.68378L5.59999 14.3838C5.39999 14.5938 5.16999 15.0938 5.12999 15.3838L4.75999 18.6238C4.71999 18.9538 4.79999 19.2238 4.97999 19.3938C5.15999 19.5638 5.42999 19.6238 5.75999 19.5738L8.97999 19.0238C9.26999 18.9738 9.74999 18.7138 9.94999 18.5038L18.16 9.81378C19.4 8.49378 19.85 7.27378 18.04 5.57378C17.24 4.80378 16.55 4.48378 15.93 4.48378Z" fill="#1B3249"/>
<path d="M17.3397 12.526C17.3197 12.526 17.2897 12.526 17.2697 12.526C14.1497 12.216 11.6397 9.84602 11.1597 6.74602C11.0997 6.33602 11.3797 5.95602 11.7897 5.88602C12.1997 5.82602 12.5797 6.10602 12.6497 6.51602C13.0297 8.93602 14.9897 10.796 17.4297 11.036C17.8397 11.076 18.1397 11.446 18.0997 11.856C18.0497 12.236 17.7197 12.526 17.3397 12.526Z" fill="#1B3249"/>
</svg>
