<svg width="20" height="20" viewBox="0 0 20 20" fill="none" xmlns="http://www.w3.org/2000/svg">
<path fill-rule="evenodd" clip-rule="evenodd" d="M9.99959 6.87174C8.2737 6.87174 6.87459 8.27085 6.87459 9.99674C6.87459 11.7226 8.2737 13.1217 9.99959 13.1217C11.7255 13.1217 13.1246 11.7226 13.1246 9.99674C13.1246 8.27085 11.7255 6.87174 9.99959 6.87174ZM8.12459 9.99674C8.12459 8.96121 8.96406 8.12174 9.99959 8.12174C11.0351 8.12174 11.8746 8.96121 11.8746 9.99674C11.8746 11.0323 11.0351 11.8717 9.99959 11.8717C8.96406 11.8717 8.12459 11.0323 8.12459 9.99674Z" fill="#5B6871"/>
<path fill-rule="evenodd" clip-rule="evenodd" d="M9.99959 2.70508C6.23782 2.70508 3.704 4.95858 2.2334 6.86913L2.20688 6.90358C1.87429 7.33552 1.56798 7.73335 1.36017 8.20374C1.13763 8.70747 1.04126 9.25649 1.04126 9.99674C1.04126 10.737 1.13763 11.286 1.36017 11.7897C1.56798 12.2601 1.87429 12.658 2.20688 13.0899L2.2334 13.1244C3.704 15.0349 6.23782 17.2884 9.99959 17.2884C13.7614 17.2884 16.2952 15.0349 17.7658 13.1244L17.7923 13.0899C18.1249 12.658 18.4312 12.2602 18.639 11.7897C18.8616 11.286 18.9579 10.737 18.9579 9.99674C18.9579 9.25649 18.8616 8.70747 18.639 8.20374C18.4312 7.73334 18.1249 7.33551 17.7923 6.90356L17.7658 6.86913C16.2952 4.95858 13.7614 2.70508 9.99959 2.70508ZM3.22394 7.63158C4.58179 5.86751 6.79156 3.95508 9.99959 3.95508C13.2076 3.95508 15.4174 5.86751 16.7752 7.63158C17.1407 8.1064 17.3548 8.39012 17.4956 8.70887C17.6272 9.00676 17.7079 9.37086 17.7079 9.99674C17.7079 10.6226 17.6272 10.9867 17.4956 11.2846C17.3548 11.6034 17.1407 11.8871 16.7752 12.3619C15.4174 14.126 13.2076 16.0384 9.99959 16.0384C6.79156 16.0384 4.58179 14.126 3.22394 12.3619C2.85846 11.8871 2.64437 11.6034 2.50356 11.2846C2.37196 10.9867 2.29126 10.6226 2.29126 9.99674C2.29126 9.37086 2.37196 9.00676 2.50356 8.70887C2.64437 8.39013 2.85846 8.1064 3.22394 7.63158Z" fill="#5B6871"/>
</svg>
