<svg width="16" height="16" viewBox="0 0 16 16" fill="none" xmlns="http://www.w3.org/2000/svg">
<path fill-rule="evenodd" clip-rule="evenodd" d="M7.99992 5.50033C6.61921 5.50033 5.49992 6.61961 5.49992 8.00033C5.49992 9.38104 6.61921 10.5003 7.99992 10.5003C9.38063 10.5003 10.4999 9.38104 10.4999 8.00033C10.4999 6.61961 9.38063 5.50033 7.99992 5.50033ZM6.49992 8.00033C6.49992 7.1719 7.17149 6.50033 7.99992 6.50033C8.82835 6.50033 9.49992 7.1719 9.49992 8.00033C9.49992 8.82875 8.82835 9.50033 7.99992 9.50033C7.17149 9.50033 6.49992 8.82875 6.49992 8.00033Z" fill="#1B3249"/>
<path fill-rule="evenodd" clip-rule="evenodd" d="M7.99992 2.16699C4.9905 2.16699 2.96345 3.96979 1.78696 5.49823L1.76575 5.52579C1.49968 5.87135 1.25463 6.18961 1.08838 6.56592C0.910348 6.96891 0.833252 7.40812 0.833252 8.00033C0.833252 8.59253 0.910348 9.03174 1.08838 9.43473C1.25463 9.81105 1.49968 10.1293 1.76575 10.4749L1.78696 10.5024C2.96345 12.0309 4.9905 13.8337 7.99992 13.8337C11.0093 13.8337 13.0364 12.0309 14.2129 10.5024L14.2341 10.4749C14.5002 10.1293 14.7452 9.81105 14.9115 9.43473C15.0895 9.03174 15.1666 8.59253 15.1666 8.00033C15.1666 7.40812 15.0895 6.96891 14.9115 6.56592C14.7452 6.1896 14.5002 5.87134 14.2341 5.52578L14.2129 5.49823C13.0364 3.96979 11.0093 2.16699 7.99992 2.16699ZM2.5794 6.10819C3.66568 4.69694 5.43349 3.16699 7.99992 3.16699C10.5663 3.16699 12.3342 4.69694 13.4204 6.10819C13.7128 6.48805 13.8841 6.71503 13.9967 6.97002C14.102 7.20834 14.1666 7.49962 14.1666 8.00033C14.1666 8.50104 14.102 8.79232 13.9967 9.03063C13.8841 9.28562 13.7128 9.5126 13.4204 9.89246C12.3342 11.3037 10.5663 12.8337 7.99992 12.8337C5.43349 12.8337 3.66568 11.3037 2.5794 9.89246C2.28701 9.5126 2.11574 9.28562 2.00309 9.03063C1.89781 8.79231 1.83325 8.50104 1.83325 8.00033C1.83325 7.49962 1.89781 7.20834 2.00309 6.97002C2.11574 6.71503 2.28701 6.48805 2.5794 6.10819Z" fill="#1B3249"/>
</svg>
