<svg width="16" height="16" viewBox="0 0 16 16" fill="none" xmlns="http://www.w3.org/2000/svg">
<rect width="16" height="16" rx="4.66667" fill="#ECF2FE"/>
<circle cx="8" cy="8" r="2" fill="#457CE8"/>
<path d="M10 10C10.2626 10 10.5227 9.94827 10.7654 9.84776C11.008 9.74725 11.2285 9.59993 11.4142 9.41421C11.5999 9.2285 11.7472 9.00802 11.8478 8.76537C11.9483 8.52272 12 8.26264 12 8C12 7.73736 11.9483 7.47728 11.8478 7.23463C11.7472 6.99198 11.5999 6.7715 11.4142 6.58579C11.2285 6.40007 11.008 6.25275 10.7654 6.15224C10.5227 6.05173 10.2626 6 10 6L10 8V10Z" fill="#457CE8"/>
<path d="M10 12C10.2626 12 10.5227 11.9483 10.7654 11.8478C11.008 11.7472 11.2285 11.5999 11.4142 11.4142C11.5999 11.2285 11.7472 11.008 11.8478 10.7654C11.9483 10.5227 12 10.2626 12 10L10 10V12Z" fill="#457CE8"/>
<path d="M10 4C10.2626 4 10.5227 4.05173 10.7654 4.15224C11.008 4.25275 11.2285 4.40007 11.4142 4.58579C11.5999 4.7715 11.7472 4.99198 11.8478 5.23463C11.9483 5.47728 12 5.73736 12 6L10 6V4Z" fill="#457CE8"/>
<path d="M4 6C4 5.73736 4.05173 5.47728 4.15224 5.23463C4.25275 4.99198 4.40007 4.7715 4.58579 4.58579C4.7715 4.40007 4.99198 4.25275 5.23463 4.15224C5.47728 4.05173 5.73736 4 6 4L6 6H4Z" fill="#457CE8"/>
<path d="M6 12C5.73736 12 5.47728 11.9483 5.23463 11.8478C4.99198 11.7472 4.7715 11.5999 4.58579 11.4142C4.40007 11.2285 4.25275 11.008 4.15224 10.7654C4.05173 10.5227 4 10.2626 4 10L6 10V12Z" fill="#457CE8"/>
<path d="M6 10C6 10.2626 6.05173 10.5227 6.15224 10.7654C6.25275 11.008 6.40007 11.2285 6.58579 11.4142C6.7715 11.5999 6.99198 11.7472 7.23463 11.8478C7.47728 11.9483 7.73736 12 8 12C8.26264 12 8.52272 11.9483 8.76537 11.8478C9.00802 11.7472 9.2285 11.5999 9.41421 11.4142C9.59993 11.2285 9.74725 11.008 9.84776 10.7654C9.94827 10.5227 10 10.2626 10 10L8 10H6Z" fill="#457CE8"/>
<path d="M6 10C5.73736 10 5.47728 9.94827 5.23463 9.84776C4.99198 9.74725 4.7715 9.59993 4.58579 9.41421C4.40007 9.2285 4.25275 9.00802 4.15224 8.76537C4.05173 8.52272 4 8.26264 4 8C4 7.73736 4.05173 7.47728 4.15224 7.23463C4.25275 6.99198 4.40007 6.7715 4.58579 6.58579C4.7715 6.40007 4.99198 6.25275 5.23463 6.15224C5.47728 6.05173 5.73736 6 6 6L6 8V10Z" fill="#457CE8"/>
<path d="M6 6C6 5.73736 6.05173 5.47728 6.15224 5.23463C6.25275 4.99198 6.40007 4.7715 6.58579 4.58579C6.7715 4.40007 6.99198 4.25275 7.23463 4.15224C7.47728 4.05173 7.73736 4 8 4C8.26264 4 8.52272 4.05173 8.76537 4.15224C9.00802 4.25275 9.2285 4.40007 9.41421 4.58579C9.59993 4.7715 9.74725 4.99198 9.84776 5.23463C9.94827 5.47728 10 5.73736 10 6L8 6H6Z" fill="#457CE8"/>
</svg>
