<svg width="576" height="386" viewBox="0 0 576 386" fill="none" xmlns="http://www.w3.org/2000/svg">
<rect width="576" height="386" rx="16" fill="url(#paint0_linear_251_1572)"/>
<path d="M173.383 333.797C237.034 367.062 340.243 367.062 403.895 333.797C467.546 300.531 467.546 246.561 403.895 213.318C340.243 180.076 237.034 180.045 173.383 213.318C109.732 246.592 109.732 300.523 173.383 333.797Z" fill="white"/>
<path d="M284.803 298.679L287.737 300.37C288.255 300.632 288.827 300.769 289.408 300.769C289.989 300.769 290.561 300.632 291.079 300.37L369.267 255.223C369.469 255.155 369.644 255.025 369.768 254.852C369.892 254.679 369.959 254.471 369.959 254.258C369.959 254.045 369.892 253.838 369.768 253.664C369.644 253.491 369.469 253.362 369.267 253.293L366.342 251.602C365.824 251.34 365.251 251.203 364.67 251.203C364.089 251.203 363.517 251.34 362.999 251.602L284.803 296.749C284.601 296.817 284.426 296.947 284.302 297.12C284.178 297.293 284.111 297.501 284.111 297.714C284.111 297.927 284.178 298.135 284.302 298.308C284.426 298.481 284.601 298.611 284.803 298.679Z" fill="#E0E0E0"/>
<path d="M412.2 292.326C402.519 297.507 386.817 297.507 377.136 292.326C367.455 287.146 367.455 278.755 377.136 273.575C386.817 268.394 402.519 268.394 412.2 273.575C421.881 278.755 421.881 287.185 412.2 292.326Z" fill="#E0E0E0"/>
<path d="M406.199 261.321C406.199 261.321 407.095 253.47 411.001 247.379C414.907 241.288 420.265 237.49 425.268 237.096C430.27 236.702 434.315 241.303 428.966 244.461C423.616 247.618 414.097 250.853 409.72 262.68L406.199 261.321Z" fill="#4580F7"/>
<path opacity="0.1" d="M406.199 261.321C406.199 261.321 407.095 253.47 411.001 247.379C414.907 241.288 420.265 237.49 425.268 237.096C430.27 236.702 434.315 241.303 428.966 244.461C423.616 247.618 414.097 250.853 409.72 262.68L406.199 261.321Z" fill="black"/>
<path d="M407.661 259.283H407.607C407.574 259.27 407.544 259.251 407.519 259.227C407.494 259.202 407.474 259.173 407.46 259.141C407.446 259.108 407.439 259.073 407.439 259.038C407.439 259.003 407.447 258.968 407.46 258.936C412.741 245.928 422.792 240.493 427.37 239.443C427.404 239.435 427.439 239.433 427.474 239.439C427.508 239.444 427.541 239.457 427.571 239.475C427.601 239.493 427.627 239.517 427.647 239.545C427.668 239.574 427.683 239.606 427.691 239.64C427.699 239.674 427.7 239.709 427.695 239.743C427.689 239.778 427.677 239.811 427.659 239.841C427.64 239.87 427.616 239.896 427.588 239.917C427.56 239.937 427.528 239.952 427.494 239.96C423.008 240.995 413.15 246.329 407.954 259.137C407.928 259.19 407.886 259.233 407.833 259.259C407.78 259.286 407.719 259.294 407.661 259.283Z" fill="white"/>
<path d="M434.41 259.44C433.954 260.459 432.866 260.984 431.8 261.409C430.735 261.833 429.639 262.273 429.075 263.246C427.948 265.191 429.801 267.94 428.589 269.839C428.305 270.218 427.947 270.536 427.537 270.773C427.127 271.01 426.673 271.163 426.203 271.221C425.431 271.367 424.659 271.36 423.887 271.429C423.516 271.421 423.144 271.392 422.776 271.344C421.692 271.102 420.558 271.221 419.549 271.684C418.005 272.556 417.518 274.517 416.576 276.023C415.995 276.916 415.227 277.672 414.324 278.238C413.422 278.805 412.407 279.168 411.35 279.304C410.45 279.487 409.517 279.426 408.648 279.126L408.501 279.033C408.403 278.93 408.31 278.822 408.223 278.709V278.663C407.946 277.651 408.393 276.594 408.416 275.575C408.42 275.513 408.42 275.451 408.416 275.389C408.378 274.17 408.339 272.965 408.316 271.753C408.254 269.522 408.231 267.283 408.247 265.052C408.247 263.609 408.084 262.018 408.702 260.652C409.381 259.154 411.072 259.108 411.705 257.649C411.96 257.054 412.099 256.429 412.346 255.835C412.729 254.964 413.345 254.215 414.125 253.671C414.905 253.126 415.82 252.806 416.769 252.747C419.719 252.6 422.359 254.986 425.308 254.769C426.066 254.663 426.818 254.519 427.562 254.337C429.948 253.889 432.711 254.569 434.055 256.591C434.34 257.002 434.521 257.476 434.583 257.972C434.645 258.468 434.586 258.972 434.41 259.44Z" fill="#4580F7"/>
<path d="M407.914 274C407.882 273.992 407.851 273.978 407.825 273.957C407.798 273.937 407.776 273.912 407.759 273.883C407.743 273.855 407.732 273.823 407.728 273.79C407.724 273.757 407.727 273.723 407.736 273.691C411.805 258.406 427.909 256.198 431.668 256.468C431.702 256.47 431.734 256.478 431.764 256.493C431.794 256.508 431.82 256.529 431.842 256.554C431.863 256.579 431.88 256.608 431.89 256.64C431.9 256.672 431.903 256.705 431.9 256.738C431.899 256.771 431.891 256.803 431.878 256.833C431.864 256.863 431.844 256.889 431.819 256.911C431.795 256.933 431.766 256.949 431.734 256.959C431.703 256.969 431.67 256.973 431.638 256.97C427.947 256.707 412.199 258.869 408.215 273.822C408.197 273.885 408.156 273.938 408.1 273.971C408.044 274.004 407.977 274.014 407.914 274Z" fill="white"/>
<path d="M425.811 266.255C425.761 266.246 425.716 266.222 425.68 266.186C424.192 264.898 422.438 263.953 420.543 263.42C418.648 262.886 416.659 262.776 414.718 263.098C414.685 263.103 414.652 263.102 414.62 263.095C414.588 263.087 414.557 263.073 414.531 263.054C414.504 263.034 414.482 263.01 414.465 262.982C414.448 262.953 414.437 262.922 414.432 262.89C414.423 262.823 414.441 262.756 414.481 262.702C414.522 262.649 414.582 262.613 414.648 262.604C416.667 262.27 418.734 262.387 420.702 262.944C422.671 263.502 424.492 264.488 426.035 265.831C426.071 265.87 426.093 265.918 426.1 265.97C426.107 266.023 426.097 266.076 426.073 266.122C426.048 266.169 426.01 266.206 425.963 266.23C425.916 266.254 425.863 266.263 425.811 266.255Z" fill="white"/>
<path d="M300.6 188.67V196.39L167.376 273.289L163.277 275.605C162.346 274.973 161.578 274.131 161.033 273.146C160.488 272.162 160.183 271.063 160.143 269.939V140.436C160.152 140.205 160.218 139.979 160.336 139.78C160.451 139.576 160.616 139.403 160.814 139.278L191.177 121.746C191.548 121.537 193.709 122.441 194.064 122.657L194.296 122.788C194.497 122.917 194.676 123.075 194.829 123.259C194.999 123.445 195.13 123.663 195.215 123.9L197.963 131.836L296.779 72.9631C296.982 72.869 297.203 72.8203 297.427 72.8203C297.651 72.8203 297.873 72.869 298.076 72.9631L299.913 74.0285C300.109 74.1512 300.271 74.3211 300.384 74.5225C300.505 74.7232 300.572 74.9521 300.577 75.1865V188.67H300.6Z" fill="#263238"/>
<path d="M300.599 196.358L163.275 275.604V141.469L194.827 123.258C194.997 123.443 195.128 123.661 195.213 123.898L197.961 131.834L198.486 133.34L300.39 74.498C300.511 74.6987 300.578 74.9276 300.583 75.162L300.599 196.358Z" fill="#37474F"/>
<path d="M194.829 123.257L163.277 141.468L160.336 139.778C160.452 139.574 160.616 139.401 160.815 139.276L191.177 121.744C191.382 121.639 191.608 121.584 191.837 121.584C192.067 121.584 192.293 121.639 192.497 121.744L194.296 122.778C194.498 122.909 194.677 123.071 194.829 123.257Z" fill="#455A64"/>
<path d="M300.4 74.4994L198.496 133.341L197.971 131.836L296.787 72.9631C296.99 72.869 297.211 72.8203 297.435 72.8203C297.659 72.8203 297.88 72.869 298.084 72.9631L299.921 74.0285C300.117 74.1437 300.281 74.3054 300.4 74.4994Z" fill="#455A64"/>
<path d="M205.465 221.078C205.041 220.793 204.691 220.411 204.443 219.964C204.195 219.518 204.056 219.018 204.037 218.508V90.927C204.068 90.3984 204.224 89.8845 204.492 89.4281C204.761 88.9717 205.134 88.5857 205.581 88.3022L280.944 44.8386C281.382 44.5632 281.888 44.4125 282.405 44.4028C282.923 44.3931 283.434 44.5248 283.882 44.7836C284.331 45.0424 284.701 45.4186 284.951 45.8718C285.202 46.3249 285.325 46.8378 285.306 47.3553V174.936C285.274 175.464 285.117 175.978 284.849 176.434C284.581 176.89 284.208 177.276 283.762 177.561L208.407 221.024C207.955 221.265 207.454 221.395 206.942 221.404C206.431 221.414 205.925 221.302 205.465 221.078Z" fill="#E0E0E0"/>
<path d="M208.407 221.024L283.77 177.561C284.216 177.276 284.589 176.89 284.857 176.434C285.126 175.978 285.282 175.464 285.314 174.936V47.3552C285.314 46.3902 284.634 45.9965 283.77 46.4752L208.399 89.9465C207.953 90.2309 207.58 90.6171 207.312 91.0733C207.044 91.5296 206.887 92.0429 206.855 92.5713V220.152C206.886 221.117 207.566 221.511 208.407 221.024Z" fill="white"/>
<path d="M216.66 95.0116L273.572 62.1553C274.305 61.7307 274.907 62.0703 274.907 62.9273V63.4599C274.881 63.9235 274.746 64.3744 274.515 64.7766C274.283 65.1788 273.96 65.521 273.572 65.7759L216.66 98.6323C215.888 99.0569 215.324 98.7095 215.324 97.8603V97.3276C215.349 96.8638 215.483 96.4124 215.715 96.01C215.947 95.6076 216.271 95.2656 216.66 95.0116Z" fill="#E0E0E0"/>
<path d="M216.66 104.051L273.572 71.1949C274.305 70.7703 274.907 71.1177 274.907 71.9669V72.4996C274.882 72.9634 274.748 73.4148 274.516 73.8171C274.284 74.2195 273.961 74.5616 273.572 74.8156L216.66 107.672C215.888 108.096 215.324 107.749 215.324 106.9V106.367C215.35 105.904 215.485 105.453 215.717 105.051C215.949 104.648 216.272 104.306 216.66 104.051Z" fill="#E0E0E0"/>
<path d="M216.66 113.09L273.572 80.234C274.305 79.8094 274.907 80.1568 274.907 81.006V81.5386C274.882 82.0024 274.748 82.4538 274.516 82.8562C274.284 83.2586 273.961 83.6006 273.572 83.8546L216.66 116.711C215.888 117.143 215.324 116.796 215.324 115.939V115.406C215.35 114.943 215.485 114.492 215.717 114.09C215.949 113.687 216.272 113.345 216.66 113.09Z" fill="#E0E0E0"/>
<path d="M216.66 122.132L273.572 89.2836C274.305 88.8513 274.907 89.1987 274.907 90.0556V90.5883C274.88 91.0517 274.746 91.5024 274.514 91.9045C274.282 92.3066 273.959 92.649 273.572 92.9043L216.66 125.761C215.888 126.185 215.324 125.838 215.324 124.989V124.448C215.351 123.985 215.486 123.534 215.718 123.132C215.95 122.73 216.272 122.388 216.66 122.132Z" fill="#E0E0E0"/>
<path d="M216.66 131.18L273.572 98.3232C274.305 97.8986 274.907 98.2383 274.907 99.0952V99.6279C274.881 100.091 274.746 100.542 274.515 100.945C274.283 101.347 273.96 101.689 273.572 101.944L216.66 134.8C215.888 135.225 215.324 134.877 215.324 134.028V133.496C215.349 133.032 215.483 132.58 215.715 132.178C215.947 131.776 216.271 131.434 216.66 131.18Z" fill="#E0E0E0"/>
<path d="M216.66 140.288L273.572 107.432C274.305 107 274.907 107.347 274.907 108.204V108.737C274.88 109.2 274.746 109.651 274.514 110.053C274.282 110.455 273.959 110.797 273.572 111.053L216.66 143.909C215.888 144.334 215.324 143.986 215.324 143.137V142.604C215.349 142.141 215.483 141.689 215.715 141.287C215.947 140.884 216.271 140.542 216.66 140.288Z" fill="#E0E0E0"/>
<path d="M216.66 149.328L273.572 116.472C274.305 116.047 274.907 116.387 274.907 117.244V117.776C274.881 118.24 274.746 118.691 274.515 119.093C274.283 119.495 273.96 119.837 273.572 120.092L216.66 152.949C215.888 153.373 215.324 153.026 215.324 152.177V151.644C215.349 151.18 215.483 150.729 215.715 150.326C215.947 149.924 216.271 149.582 216.66 149.328Z" fill="#E0E0E0"/>
<path d="M216.66 158.37L273.572 125.513C274.305 125.089 274.907 125.436 274.907 126.285V126.818C274.882 127.282 274.748 127.733 274.516 128.135C274.284 128.538 273.961 128.88 273.572 129.134L216.66 161.99C215.888 162.415 215.324 162.075 215.324 161.218V160.686C215.35 160.222 215.485 159.771 215.717 159.369C215.949 158.967 216.272 158.624 216.66 158.37Z" fill="#E0E0E0"/>
<path d="M216.66 167.411L273.572 134.554C274.305 134.13 274.907 134.477 274.907 135.326V135.874C274.882 136.338 274.748 136.79 274.516 137.192C274.284 137.594 273.961 137.936 273.572 138.19L216.66 171.047C215.888 171.479 215.324 171.132 215.324 170.275V169.742C215.349 169.276 215.482 168.822 215.714 168.417C215.946 168.012 216.27 167.667 216.66 167.411Z" fill="#E0E0E0"/>
<path d="M216.66 176.458L273.572 143.594C274.305 143.162 274.907 143.509 274.907 144.366V144.899C274.88 145.362 274.746 145.813 274.514 146.215C274.282 146.617 273.959 146.96 273.572 147.215L216.66 180.071C215.888 180.496 215.324 180.148 215.324 179.299V178.767C215.35 178.304 215.485 177.854 215.717 177.453C215.949 177.052 216.272 176.711 216.66 176.458Z" fill="#E0E0E0"/>
<path d="M216.66 185.534L273.572 152.677C274.305 152.253 274.907 152.6 274.907 153.449V153.982C274.881 154.446 274.746 154.896 274.515 155.299C274.283 155.701 273.96 156.043 273.572 156.298L216.66 189.139C215.888 189.563 215.324 189.216 215.324 188.367V187.834C215.352 187.373 215.487 186.925 215.719 186.525C215.951 186.126 216.273 185.786 216.66 185.534Z" fill="#E0E0E0"/>
<path d="M216.66 194.545L273.572 161.689C274.305 161.264 274.907 161.612 274.907 162.461V162.994C274.882 163.458 274.748 163.909 274.516 164.311C274.284 164.714 273.961 165.056 273.572 165.31L216.66 198.166C215.888 198.591 215.324 198.251 215.324 197.394V196.861C215.35 196.398 215.485 195.947 215.717 195.545C215.949 195.143 216.272 194.8 216.66 194.545Z" fill="#E0E0E0"/>
<path d="M216.66 203.614L273.572 170.757C274.305 170.333 274.907 170.68 274.907 171.529V172.07C274.88 172.533 274.746 172.984 274.514 173.386C274.282 173.788 273.959 174.13 273.572 174.386L216.66 207.234C215.888 207.667 215.324 207.319 215.324 206.462V205.93C215.351 205.466 215.486 205.016 215.718 204.614C215.95 204.211 216.272 203.869 216.66 203.614Z" fill="#E0E0E0"/>
<path d="M208.208 221.125C207.768 221.359 207.274 221.473 206.775 221.455C206.277 221.437 205.792 221.288 205.37 221.022C204.948 220.756 204.603 220.384 204.371 219.943C204.139 219.501 204.027 219.007 204.047 218.508V90.9352C204.066 90.4069 204.217 89.8919 204.487 89.4375L207.336 91.0819C207.062 91.5322 206.908 92.0451 206.888 92.5718V220.153C206.888 221.04 207.467 221.442 208.208 221.125Z" fill="#E0E0E0"/>
<path d="M216.133 227.131C215.709 226.846 215.359 226.464 215.111 226.017C214.863 225.57 214.724 225.071 214.705 224.561V96.9798C214.736 96.4511 214.892 95.9373 215.16 95.4809C215.428 95.0244 215.802 94.6385 216.249 94.355L291.612 50.8914C292.05 50.6159 292.556 50.4653 293.073 50.4556C293.591 50.4459 294.102 50.5775 294.55 50.8363C294.999 51.0952 295.369 51.4714 295.619 51.9245C295.87 52.3776 295.992 52.8905 295.974 53.4081V180.989C295.942 181.517 295.785 182.031 295.517 182.487C295.249 182.943 294.876 183.329 294.43 183.614L219.067 227.077C218.617 227.316 218.116 227.446 217.607 227.455C217.097 227.464 216.592 227.354 216.133 227.131Z" fill="#E0E0E0"/>
<path d="M219.077 227.077L294.44 183.613C294.886 183.329 295.259 182.943 295.527 182.487C295.796 182.03 295.952 181.517 295.984 180.989V53.408C295.984 52.443 295.304 52.0492 294.44 52.5279L219.069 95.9992C218.623 96.2836 218.25 96.6698 217.982 97.126C217.714 97.5823 217.557 98.0956 217.525 98.624V226.197C217.556 227.17 218.236 227.563 219.077 227.077Z" fill="white"/>
<path d="M227.328 101.062L284.24 68.206C285.012 67.7814 285.575 68.1211 285.575 68.978V69.4798C285.549 69.9434 285.414 70.3943 285.182 70.7965C284.951 71.1987 284.628 71.5409 284.24 71.7958L227.328 104.683C226.556 105.108 225.992 104.76 225.992 103.911V103.378C226.017 102.915 226.151 102.463 226.383 102.061C226.615 101.658 226.939 101.316 227.328 101.062Z" fill="#E0E0E0"/>
<path d="M227.328 110.104L284.24 77.2476C285.012 76.823 285.575 77.1704 285.575 78.0196V78.5523C285.55 79.0161 285.416 79.4675 285.184 79.8699C284.952 80.2723 284.628 80.6143 284.24 80.8683L227.328 113.725C226.556 114.149 225.992 113.81 225.992 112.953V112.42C226.018 111.956 226.153 111.505 226.385 111.103C226.617 110.701 226.94 110.359 227.328 110.104Z" fill="#E0E0E0"/>
<path d="M227.328 119.143L284.24 86.2867C285.012 85.8621 285.575 86.2095 285.575 87.0587V87.5914C285.55 88.0552 285.416 88.5066 285.184 88.9089C284.952 89.3113 284.628 89.6534 284.24 89.9074L227.328 122.748C226.556 123.181 225.992 122.833 225.992 121.976V121.444C226.021 120.983 226.156 120.535 226.388 120.136C226.62 119.736 226.942 119.396 227.328 119.143Z" fill="#E0E0E0"/>
<path d="M227.328 128.193L284.24 95.3364C285.012 94.9041 285.575 95.2515 285.575 96.1084V96.6411C285.548 97.1045 285.414 97.5552 285.182 97.9573C284.95 98.3593 284.627 98.7017 284.24 98.9571L227.328 131.813C226.556 132.238 225.992 131.891 225.992 131.041V130.509C226.017 130.045 226.151 129.594 226.383 129.191C226.615 128.789 226.939 128.447 227.328 128.193Z" fill="#E0E0E0"/>
<path d="M227.328 137.232L284.24 104.376C285.012 103.951 285.575 104.291 285.575 105.148V105.681C285.549 106.144 285.414 106.595 285.182 106.997C284.951 107.399 284.628 107.742 284.24 107.997L227.328 140.853C226.556 141.278 225.992 140.93 225.992 140.081V139.548C226.017 139.084 226.151 138.633 226.383 138.231C226.615 137.828 226.939 137.486 227.328 137.232Z" fill="#E0E0E0"/>
<path d="M227.328 146.339L284.24 113.483C285.012 113.051 285.575 113.398 285.575 114.255V114.788C285.548 115.251 285.414 115.702 285.182 116.104C284.95 116.506 284.627 116.848 284.24 117.104L227.328 149.96C226.556 150.384 225.992 150.037 225.992 149.188V148.655C226.017 148.191 226.151 147.74 226.383 147.338C226.615 146.935 226.939 146.593 227.328 146.339Z" fill="#E0E0E0"/>
<path d="M227.328 155.381L284.24 122.524C285.012 122.1 285.575 122.439 285.575 123.296V123.829C285.549 124.293 285.414 124.744 285.182 125.146C284.951 125.548 284.628 125.89 284.24 126.145L227.328 159.032C226.556 159.457 225.992 159.109 225.992 158.26V157.728C226.012 157.258 226.144 156.801 226.376 156.393C226.609 155.985 226.935 155.638 227.328 155.381Z" fill="#E0E0E0"/>
<path d="M227.328 164.436L284.24 131.58C285.012 131.155 285.575 131.502 285.575 132.352V132.884C285.55 133.348 285.416 133.8 285.184 134.202C284.952 134.604 284.628 134.946 284.24 135.2L227.328 168.057C226.556 168.481 225.992 168.142 225.992 167.285V166.752C226.018 166.288 226.153 165.838 226.385 165.435C226.617 165.033 226.94 164.691 227.328 164.436Z" fill="#E0E0E0"/>
<path d="M227.328 173.461L284.24 140.605C285.012 140.18 285.575 140.528 285.575 141.377V141.91C285.55 142.374 285.416 142.825 285.184 143.227C284.952 143.63 284.628 143.972 284.24 144.226L227.328 177.082C226.556 177.514 225.992 177.167 225.992 176.31V175.777C226.019 175.314 226.154 174.863 226.386 174.461C226.618 174.059 226.94 173.717 227.328 173.461Z" fill="#E0E0E0"/>
<path d="M227.328 182.507L284.24 149.651C285.012 149.219 285.575 149.566 285.575 150.423V150.956C285.548 151.419 285.414 151.87 285.182 152.272C284.95 152.674 284.627 153.016 284.24 153.272L227.328 186.128C226.556 186.552 225.992 186.205 225.992 185.356V184.823C226.017 184.359 226.151 183.908 226.383 183.506C226.615 183.103 226.939 182.761 227.328 182.507Z" fill="#E0E0E0"/>
<path d="M227.328 191.586L284.24 158.73C285.012 158.305 285.575 158.653 285.575 159.502V160.035C285.55 160.499 285.416 160.95 285.184 161.352C284.952 161.755 284.628 162.097 284.24 162.351L227.328 195.207C226.556 195.632 225.992 195.284 225.992 194.435V193.902C226.017 193.439 226.151 192.987 226.383 192.585C226.615 192.182 226.939 191.84 227.328 191.586Z" fill="#E0E0E0"/>
<path d="M227.328 200.627L284.24 167.771C285.012 167.346 285.575 167.694 285.575 168.543V169.068C285.55 169.532 285.416 169.983 285.184 170.386C284.952 170.788 284.628 171.13 284.24 171.384L227.328 204.24C226.556 204.665 225.992 204.325 225.992 203.468V202.936C226.02 202.473 226.155 202.024 226.387 201.623C226.618 201.223 226.941 200.882 227.328 200.627Z" fill="#E0E0E0"/>
<path d="M227.328 209.666L284.24 176.787C285.012 176.362 285.575 176.709 285.575 177.559V178.099C285.548 178.562 285.414 179.013 285.182 179.415C284.95 179.817 284.627 180.16 284.24 180.415L227.328 213.264C226.556 213.696 225.992 213.349 225.992 212.492V211.959C226.023 211.5 226.159 211.054 226.391 210.656C226.622 210.258 226.943 209.919 227.328 209.666Z" fill="#E0E0E0"/>
<path d="M218.874 227.178C218.434 227.412 217.94 227.526 217.441 227.508C216.943 227.49 216.458 227.34 216.036 227.075C215.614 226.809 215.269 226.437 215.037 225.996C214.805 225.554 214.693 225.059 214.713 224.561V96.9879C214.732 96.4597 214.883 95.9446 215.153 95.4902L218.002 97.1346C217.728 97.5849 217.574 98.0978 217.554 98.6246V226.198C217.554 227.093 218.133 227.495 218.874 227.178Z" fill="#E0E0E0"/>
<path d="M328.646 90.3248L306.628 185.667L304.598 194.437C303.924 196.777 302.431 198.797 300.39 200.126L169.752 275.52C168.803 276.035 167.745 276.318 166.664 276.346C165.491 276.428 164.317 276.182 163.275 275.636L163.947 272.725L164.017 272.44L164.75 269.251L167.946 255.417L188.188 167.764C188.215 167.651 188.257 167.542 188.311 167.44C188.365 167.34 188.427 167.239 188.489 167.147V167.1C188.629 166.911 188.801 166.749 188.998 166.622L300.591 102.214L325.009 88.1169C325.217 88.0106 325.447 87.9551 325.681 87.9551C325.915 87.9551 326.145 88.0106 326.353 88.1169L328.151 89.1514C328.342 89.2752 328.49 89.4531 328.579 89.6623C328.667 89.8715 328.69 90.1023 328.646 90.3248Z" fill="#37474F"/>
<path d="M328.668 90.101C328.668 89.8308 328.452 89.7458 328.151 89.9234L192.163 168.436C191.963 168.559 191.79 168.722 191.654 168.914L188.52 167.1C188.659 166.911 188.832 166.749 189.029 166.622L325.009 88.1169C325.217 88.0106 325.447 87.9551 325.681 87.9551C325.914 87.9551 326.145 88.0106 326.352 88.1169L328.151 89.1514C328.309 89.2552 328.438 89.396 328.528 89.5616C328.619 89.7272 328.667 89.9124 328.668 90.101Z" fill="#455A64"/>
<path d="M191.654 168.914C191.566 169.033 191.488 169.16 191.423 169.292C191.381 169.382 191.348 169.475 191.322 169.57L171.968 253.394L167.892 271.057L167.375 273.289L166.664 276.377C165.491 276.459 164.317 276.213 163.275 275.666L163.947 272.756L164.017 272.47L164.75 269.282L167.946 255.448L188.188 167.795C188.215 167.682 188.257 167.573 188.311 167.471C188.365 167.37 188.427 167.27 188.489 167.177V167.131L191.654 168.914Z" fill="#263238"/>
<path d="M168.062 267.545C168.223 267.638 168.351 267.78 168.426 267.951C168.501 268.122 168.52 268.313 168.478 268.495L167.374 273.289L166.795 275.674C166.749 275.874 166.633 276.05 166.47 276.173C166.306 276.296 166.104 276.357 165.9 276.346C164.973 276.325 164.065 276.081 163.252 275.636C162.321 275.004 161.553 274.161 161.008 273.177C160.464 272.192 160.158 271.094 160.118 269.969V264.473C160.113 264.318 160.149 264.164 160.224 264.029C160.298 263.893 160.408 263.779 160.542 263.701C160.675 263.622 160.827 263.58 160.982 263.58C161.137 263.58 161.289 263.622 161.422 263.701L162.82 264.473C162.953 264.552 163.063 264.666 163.139 264.801C163.215 264.936 163.254 265.089 163.252 265.245V267.978C163.243 268.196 163.318 268.409 163.46 268.575C163.602 268.741 163.802 268.846 164.019 268.871C164.236 268.895 164.454 268.836 164.63 268.707C164.806 268.577 164.926 268.385 164.966 268.171L165.197 267.159C165.229 267.027 165.29 266.905 165.377 266.801C165.465 266.697 165.575 266.614 165.699 266.561C165.823 266.507 165.959 266.482 166.094 266.49C166.229 266.497 166.361 266.536 166.479 266.603L168.062 267.545Z" fill="#263238"/>
<path d="M196.905 247.171L189.47 242.878L189.393 242.832C185.695 240.74 180.623 241.049 175.011 244.291C169.753 247.317 164.975 252.374 161.354 258.187C157.178 264.919 154.553 272.716 154.553 279.703C154.553 286.218 156.869 290.796 160.52 292.935L168.07 297.243C171.799 299.62 177.064 299.412 182.901 296.038C194.203 289.515 203.366 273.65 203.366 260.596C203.366 253.864 200.88 249.186 196.905 247.171Z" fill="#4580F7"/>
<path opacity="0.1" d="M167.924 297.221L160.52 292.99C156.83 290.852 154.553 286.274 154.553 279.758C154.553 272.771 157.178 264.982 161.354 258.25L169.252 262.805C165.075 269.537 162.458 277.318 162.458 284.297C162.435 290.52 164.519 294.974 167.924 297.221Z" fill="black"/>
<path opacity="0.4" d="M196.749 247.086C193.106 245.318 188.257 245.766 182.9 248.846C177.542 251.926 172.864 256.944 169.228 262.796L161.33 258.241C164.943 252.39 169.737 247.341 174.987 244.345C180.599 241.103 185.671 240.794 189.369 242.879L189.446 242.925L196.749 247.086Z" fill="white"/>
<path d="M185.726 274.579V281.782C185.726 282.148 185.641 282.51 185.479 282.839C185.366 283.152 185.158 283.422 184.884 283.611L180.939 285.889C180.851 285.954 180.743 285.985 180.633 285.976C180.524 285.968 180.422 285.92 180.345 285.842C180.255 285.736 180.186 285.614 180.144 285.481C180.101 285.349 180.086 285.209 180.098 285.07V277.898L175.242 280.693C175.155 280.761 175.047 280.794 174.937 280.787C174.828 280.78 174.725 280.733 174.647 280.654C174.557 280.549 174.489 280.426 174.446 280.293C174.404 280.161 174.388 280.021 174.4 279.882V275.019C174.405 274.65 174.489 274.287 174.647 273.953C174.772 273.659 174.978 273.408 175.242 273.228L180.098 270.425V263.254C180.102 262.885 180.187 262.521 180.345 262.188C180.466 261.893 180.673 261.64 180.939 261.463L184.884 259.147C184.972 259.082 185.08 259.051 185.188 259.058C185.297 259.065 185.4 259.11 185.479 259.185C185.57 259.291 185.638 259.413 185.681 259.546C185.723 259.679 185.739 259.818 185.726 259.957V267.114L190.551 264.334C190.637 264.267 190.746 264.233 190.855 264.24C190.965 264.248 191.068 264.295 191.145 264.373C191.235 264.479 191.304 264.602 191.346 264.734C191.389 264.867 191.404 265.006 191.392 265.145V270.009C191.388 270.377 191.303 270.741 191.145 271.074C191.021 271.368 190.814 271.62 190.551 271.8L185.726 274.579Z" fill="white"/>
<path d="M384.162 163.038L375.137 162.784C374.535 162.266 365.062 151.574 365.062 151.574C365.062 151.574 361.65 156.978 361.596 157.295C361.542 157.611 370.86 167.632 371.81 168.643C372.07 168.979 372.404 169.25 372.785 169.438C373.166 169.625 373.585 169.723 374.01 169.724C376.457 169.871 385.59 170.496 385.59 170.496L384.162 163.038Z" fill="#B16668"/>
<path d="M287.838 298.54C287.416 298.253 287.068 297.871 286.821 297.424C286.574 296.978 286.436 296.479 286.418 295.969V176.016C286.45 175.487 286.606 174.974 286.875 174.518C287.143 174.062 287.516 173.675 287.962 173.391L363.325 129.92C363.777 129.683 364.278 129.555 364.789 129.545C365.299 129.536 365.805 129.646 366.266 129.866C366.689 130.153 367.038 130.537 367.285 130.985C367.532 131.433 367.669 131.933 367.686 132.444V252.39C367.656 252.919 367.5 253.434 367.232 253.892C366.963 254.35 366.59 254.737 366.142 255.022L290.78 298.486C290.328 298.724 289.826 298.854 289.316 298.863C288.805 298.872 288.299 298.762 287.838 298.54Z" fill="#4580F7"/>
<path opacity="0.15" d="M290.355 298.655L290.51 298.609C290.478 298.632 290.441 298.648 290.402 298.655C290.311 298.692 290.218 298.723 290.124 298.748H289.969C289.855 298.773 289.739 298.791 289.622 298.802C289.488 298.809 289.354 298.809 289.221 298.802C288.74 298.812 288.264 298.701 287.839 298.477C287.529 298.278 287.266 298.015 287.067 297.705C286.682 297.179 286.464 296.55 286.441 295.899V176.015C286.44 175.753 286.479 175.493 286.557 175.243C286.595 175.114 286.642 174.988 286.696 174.865C286.75 174.737 286.812 174.614 286.881 174.494L289.722 176.139L289.653 176.254C289.421 176.677 289.292 177.147 289.275 177.628V297.613C289.274 297.767 289.294 297.92 289.336 298.068C289.386 298.248 289.488 298.409 289.63 298.531C289.722 298.6 289.827 298.65 289.939 298.678H290.116C290.185 298.689 290.256 298.689 290.325 298.678C290.337 298.674 290.348 298.666 290.355 298.655Z" fill="black"/>
<path opacity="0.3" d="M367.632 132.119C367.508 131.347 366.86 131.093 366.142 131.525L290.771 174.989C290.326 175.273 289.958 175.663 289.698 176.123L286.857 174.471C287.11 174.008 287.48 173.62 287.931 173.344L363.293 129.873C363.746 129.636 364.247 129.508 364.757 129.499C365.268 129.489 365.774 129.599 366.234 129.819C366.619 130.079 366.943 130.42 367.184 130.817C367.425 131.214 367.578 131.658 367.632 132.119Z" fill="white"/>
<path d="M299.039 180.062L355.935 147.206C356.707 146.773 357.27 147.121 357.27 147.978V148.51C357.245 148.974 357.111 149.425 356.879 149.827C356.647 150.23 356.323 150.572 355.935 150.826L299.023 183.683C298.251 184.107 297.688 183.76 297.688 182.911V182.378C297.714 181.913 297.85 181.46 298.085 181.057C298.319 180.655 298.646 180.314 299.039 180.062Z" fill="#FAFAFA"/>
<path d="M299.039 191.124L355.935 158.26C356.707 157.828 357.27 158.175 357.27 159.032V159.565C357.246 160.029 357.112 160.48 356.88 160.883C356.648 161.285 356.324 161.627 355.935 161.881L299.023 194.737C298.251 195.162 297.688 194.814 297.688 193.965V193.433C297.715 192.969 297.852 192.518 298.086 192.116C298.321 191.715 298.647 191.375 299.039 191.124Z" fill="#FAFAFA"/>
<path d="M299.039 202.185L355.935 169.329C356.707 168.904 357.27 169.244 357.27 170.101V170.611C357.246 171.075 357.112 171.526 356.88 171.929C356.648 172.331 356.324 172.673 355.935 172.927L299.023 205.783C298.251 206.208 297.688 205.86 297.688 205.011V204.478C297.717 204.017 297.855 203.569 298.09 203.171C298.324 202.772 298.649 202.435 299.039 202.185Z" fill="#FAFAFA"/>
<path d="M299.039 213.25L355.935 180.394C356.707 179.969 357.27 180.309 357.27 181.166V181.698C357.246 182.162 357.112 182.614 356.88 183.016C356.648 183.419 356.324 183.761 355.935 184.014L299.023 216.871C298.251 217.295 297.688 216.948 297.688 216.099V215.566C297.714 215.101 297.85 214.648 298.085 214.245C298.319 213.843 298.646 213.502 299.039 213.25Z" fill="#FAFAFA"/>
<path d="M299.039 224.312L355.935 191.456C356.707 191.031 357.27 191.371 357.27 192.228V192.761C357.246 193.225 357.112 193.676 356.88 194.079C356.648 194.481 356.324 194.823 355.935 195.077L299.023 227.933C298.251 228.358 297.688 228.01 297.688 227.161V226.628C297.714 226.163 297.85 225.711 298.085 225.308C298.319 224.905 298.646 224.564 299.039 224.312Z" fill="#FAFAFA"/>
<path d="M299.039 235.375L355.935 202.519C356.707 202.094 357.27 202.434 357.27 203.291V203.808C357.246 204.272 357.112 204.723 356.88 205.126C356.648 205.528 356.324 205.87 355.935 206.124L299.023 238.98C298.251 239.405 297.688 239.057 297.688 238.208V237.675C297.716 237.213 297.853 236.763 298.088 236.364C298.323 235.964 298.648 235.625 299.039 235.375Z" fill="#FAFAFA"/>
<path d="M299.039 246.439L355.935 213.583C356.707 213.158 357.27 213.498 357.27 214.355V214.888C357.246 215.352 357.112 215.803 356.88 216.206C356.648 216.608 356.324 216.95 355.935 217.204L299.023 250.06C298.251 250.485 297.688 250.137 297.688 249.288V248.755C297.714 248.29 297.85 247.837 298.085 247.435C298.319 247.032 298.646 246.691 299.039 246.439Z" fill="#FAFAFA"/>
<path d="M299.039 257.502L355.935 224.654C356.707 224.229 357.27 224.577 357.27 225.426V225.959C357.246 226.423 357.112 226.874 356.88 227.277C356.648 227.679 356.324 228.021 355.935 228.275L299.023 261.131C298.251 261.555 297.688 261.208 297.688 260.359V259.826C297.712 259.36 297.848 258.905 298.083 258.501C298.318 258.097 298.645 257.755 299.039 257.502Z" fill="#FAFAFA"/>
<path d="M299.039 268.563L355.935 235.707C356.707 235.282 357.27 235.629 357.27 236.479V237.004C357.247 237.468 357.113 237.92 356.881 238.322C356.649 238.725 356.325 239.066 355.935 239.32L299.023 272.176C298.251 272.6 297.688 272.253 297.688 271.404V270.871C297.715 270.407 297.852 269.956 298.086 269.555C298.321 269.154 298.647 268.814 299.039 268.563Z" fill="#FAFAFA"/>
<path d="M299.039 279.625L355.935 246.769C356.707 246.345 357.271 246.692 357.271 247.541V248.074C357.247 248.538 357.113 248.99 356.881 249.392C356.649 249.795 356.325 250.137 355.935 250.39L299.031 283.246C298.259 283.671 297.695 283.323 297.695 282.474V281.941C297.721 281.477 297.856 281.025 298.09 280.623C298.323 280.22 298.648 279.879 299.039 279.625Z" fill="#FAFAFA"/>
<path d="M385.834 161.472H396.549C400.222 161.472 403.745 160.013 406.343 157.416C408.94 154.818 410.399 151.296 410.399 147.622C410.399 144.365 409.105 141.241 406.802 138.937C404.498 136.634 401.374 135.34 398.117 135.34C394.859 135.34 391.735 136.634 389.431 138.937C387.128 141.241 385.834 144.365 385.834 147.622V161.472Z" fill="#263238"/>
<path d="M407.659 140.181L410.631 138.583C410.539 138.381 410.406 138.199 410.242 138.05C410.077 137.9 409.884 137.786 409.673 137.714C409.463 137.642 409.24 137.613 409.019 137.63C408.797 137.646 408.581 137.708 408.384 137.811C407.977 138.032 407.672 138.404 407.536 138.847C407.401 139.291 407.445 139.77 407.659 140.181Z" fill="#263238"/>
<path d="M407.449 140.504L410.614 141.686C410.702 141.482 410.747 141.263 410.747 141.041C410.748 140.819 410.704 140.6 410.617 140.396C410.53 140.192 410.404 140.007 410.244 139.853C410.084 139.7 409.895 139.58 409.688 139.501C409.257 139.35 408.785 139.37 408.369 139.556C407.952 139.743 407.623 140.082 407.449 140.504Z" fill="#263238"/>
<path d="M396.852 171.686L381.929 171.045C380.64 169.231 380.64 164.437 381.999 162.893L398.512 163.34L396.852 171.686Z" fill="#4580F7"/>
<path d="M387.781 264.264C387.873 265.262 387.914 266.264 387.905 267.267V273.142H392.992V269.699C392.994 268.147 393.124 266.597 393.378 265.067L387.781 264.264Z" fill="#B16668"/>
<path d="M387.897 270.625V269.892C387.758 271.003 384.577 275.188 382.555 277.033C380.941 278.507 378.741 280.206 378.177 281.85C377.614 283.494 380.779 284.228 382.863 284.019C384.888 283.768 386.753 282.792 388.113 281.271C388.956 280.212 389.713 279.086 390.375 277.905C390.993 277.071 393.772 275.358 394.112 274.385C394.208 273.481 394.108 272.567 393.818 271.706C393.579 270.803 393.324 269.807 393.046 269.892V270.448C392.318 271.019 391.416 271.324 390.491 271.312C389.711 271.343 387.897 271.196 387.897 270.625Z" fill="#263238"/>
<path d="M392.993 270.446C392.265 271.017 391.364 271.323 390.438 271.311C389.666 271.311 387.875 271.195 387.875 270.624V269.891C387.736 271.002 384.555 275.187 382.533 277.032C382.147 277.387 381.722 277.75 381.298 278.128C380.441 279.085 380.688 279.919 382.703 280.089C384.718 280.259 386.493 279.047 388.022 277.171C389.55 275.295 392.993 270.446 392.993 270.446Z" fill="#B16668"/>
<path d="M403.398 272.924C403.499 274.159 403.499 275.448 403.522 276.012V281.887H408.633V278.444C408.632 276.892 408.759 275.343 409.011 273.812L403.398 272.924Z" fill="#B16668"/>
<path d="M403.517 279.363V278.63C403.37 279.742 400.197 283.926 398.167 285.771C396.553 287.246 394.353 288.944 393.797 290.581C393.241 292.217 396.391 292.966 398.483 292.758C400.506 292.507 402.368 291.53 403.725 290.009C404.57 288.95 405.329 287.824 405.995 286.643C406.612 285.81 409.392 284.096 409.723 283.123C409.828 282.219 409.727 281.304 409.43 280.444C409.199 279.541 408.936 278.545 408.658 278.63V279.186C407.93 279.757 407.028 280.062 406.103 280.051C405.346 280.081 403.509 279.935 403.517 279.363Z" fill="#263238"/>
<path d="M408.624 279.187C407.896 279.758 406.994 280.063 406.069 280.051C405.297 280.051 403.506 279.936 403.514 279.364V278.631C403.367 279.743 400.194 283.927 398.164 285.772C397.778 286.127 397.392 286.49 396.936 286.868C396.079 287.825 396.326 288.659 398.341 288.829C400.356 288.999 402.124 287.787 403.653 285.911C405.181 284.035 408.624 279.187 408.624 279.187Z" fill="#B16668"/>
<path d="M387.781 266.686C386.685 257.677 384.894 242.098 384.369 238.693C383.883 235.543 385.103 208.585 385.851 200L412.485 198.572C414.508 207.25 412.532 218.953 411.845 226.264C411.165 233.374 410.301 241.704 410.301 241.704C410.301 241.704 412.377 248.953 411.845 254.72C411.49 258.356 409.861 269.326 409.089 274.02C408.181 274.48 407.175 274.713 406.157 274.7C405.139 274.687 404.14 274.427 403.245 273.943C403.329 274.939 402.295 261.791 401.701 256.48C400.851 249.107 400.527 243.734 399.771 239.427C398.821 234.023 398.497 213.009 398.497 213.009L395.409 236.887C395.743 239.446 395.905 242.025 395.895 244.607C395.895 249.941 393.927 262.062 393.309 266.593C391.973 267.543 389.256 267.828 387.781 266.686Z" fill="#455A64"/>
<path d="M398.487 212.994C398.487 212.994 393.615 211.288 390.844 208.74C392.238 210.909 394.215 212.64 396.549 213.735L396.595 227.708L398.487 212.994Z" fill="#37474F"/>
<path d="M402.365 163.462C402.365 163.462 409.599 164.296 410.463 164.682C406.055 169.507 410.749 173.506 410.749 173.506L407.391 188.282C410.286 191.98 411.938 194.836 412.633 199.244C409.545 204.71 392.121 205.467 385.736 201.398C386.292 193.779 387.535 188.32 387.118 186.028C384.084 176.671 385.026 174.71 385.311 172.572C385.867 168.395 390.013 164.759 392.383 163.23H394.591L402.365 163.462Z" fill="#F0F0F0"/>
<path d="M389.904 141.354C388.607 142.126 387.002 145.383 387.164 152.223C387.295 158.021 389.179 159.449 390.12 159.866C391.062 160.283 392.884 160.028 394.652 159.727V163.209C394.652 163.209 392.205 166.05 392.336 167.648C392.467 169.246 395.864 169.616 398.157 168.057C399.811 166.774 401.236 165.221 402.372 163.464L402.333 155.466C402.333 155.466 403.368 156.477 405.136 154.933C406.595 153.659 407.081 151.505 405.908 150.355C405.616 150.081 405.262 149.879 404.877 149.767C404.492 149.656 404.086 149.637 403.692 149.712C403.298 149.787 402.928 149.955 402.611 150.201C402.295 150.447 402.041 150.764 401.87 151.127C401.87 151.127 400.89 148.402 396.814 147.066C393.162 145.908 391.163 144.511 389.904 141.354Z" fill="#B16668"/>
<path d="M393.995 150.763C393.994 150.954 394.063 151.138 394.19 151.281C394.317 151.423 394.492 151.514 394.682 151.535C394.879 151.535 395.069 151.46 395.212 151.325C395.356 151.191 395.442 151.006 395.454 150.809C395.468 150.708 395.461 150.606 395.433 150.508C395.405 150.409 395.357 150.318 395.292 150.24C395.227 150.161 395.146 150.097 395.055 150.052C394.964 150.006 394.864 149.98 394.762 149.975C394.661 149.971 394.559 149.987 394.464 150.024C394.369 150.06 394.282 150.116 394.21 150.188C394.138 150.26 394.081 150.346 394.044 150.441C394.007 150.536 393.99 150.638 393.995 150.74V150.763Z" fill="#263238"/>
<path d="M393.804 155.682L392.113 156.222C392.143 156.335 392.196 156.441 392.268 156.533C392.34 156.625 392.43 156.701 392.533 156.758C392.635 156.814 392.748 156.849 392.864 156.86C392.981 156.872 393.098 156.859 393.21 156.824C393.437 156.748 393.627 156.586 393.738 156.373C393.849 156.16 393.872 155.912 393.804 155.682Z" fill="#9A4A4D"/>
<path d="M388.02 148.524L389.495 147.505C389.433 147.405 389.352 147.319 389.256 147.252C389.159 147.185 389.051 147.138 388.936 147.114C388.821 147.09 388.703 147.09 388.588 147.113C388.473 147.136 388.364 147.183 388.267 147.25C388.072 147.391 387.938 147.601 387.892 147.838C387.847 148.074 387.892 148.32 388.02 148.524Z" fill="#263238"/>
<path d="M396.117 149.065L394.643 148.046C394.704 147.946 394.786 147.86 394.882 147.793C394.978 147.726 395.087 147.679 395.202 147.655C395.316 147.631 395.435 147.631 395.55 147.654C395.665 147.677 395.774 147.724 395.87 147.791C396.065 147.932 396.199 148.142 396.245 148.379C396.291 148.615 396.245 148.861 396.117 149.065Z" fill="#263238"/>
<path d="M388.362 150.24C388.361 150.43 388.43 150.615 388.557 150.758C388.684 150.9 388.859 150.991 389.049 151.012C389.245 151.012 389.433 150.938 389.577 150.805C389.72 150.672 389.807 150.489 389.821 150.294C389.835 150.193 389.828 150.09 389.8 149.992C389.772 149.894 389.724 149.803 389.659 149.724C389.594 149.646 389.514 149.582 389.422 149.536C389.331 149.491 389.231 149.465 389.13 149.46C389.028 149.455 388.926 149.471 388.831 149.508C388.736 149.545 388.649 149.601 388.577 149.673C388.505 149.745 388.449 149.831 388.411 149.926C388.374 150.021 388.358 150.122 388.362 150.224V150.24Z" fill="#263238"/>
<path d="M391.795 149.822L391.679 154.207L389.371 153.497L391.795 149.822Z" fill="#9A4A4D"/>
<path d="M394.621 159.726C396.482 159.486 400.318 158.382 400.921 156.869C400.679 157.636 400.207 158.309 399.57 158.799C398.427 159.78 394.621 160.891 394.621 160.891V159.726Z" fill="#9A4A4D"/>
<path d="M408.887 181.682L402.719 190.691L407.389 188.282L408.887 181.682Z" fill="#E0E0E0"/>
<path d="M406.033 166.651L391.558 181.62C391.558 181.62 377.346 180.223 372.521 178.841C370.977 178.401 369.772 176.317 369.433 174.564C369.39 174.105 369.203 173.67 368.9 173.323C368.596 172.975 368.191 172.731 367.742 172.626V176.139C367.618 177.027 367.186 177.482 365.92 177.513C361.041 177.621 358.779 176.139 358.2 178.787C357.822 180.478 358.555 182.4 361.774 183.288C366.298 184.523 368.8 183.905 371.548 184.592C373.671 185.117 388.486 187.935 391.396 188.568C392.94 188.908 394.106 188.8 395.781 187.148C397.456 185.496 409.978 173.761 409.978 173.761C413.838 169.901 412.696 165.941 410.549 164.76C409.206 164.026 407.739 164.891 406.033 166.651Z" fill="#B16668"/>
<path d="M410.462 164.683C411.396 165.061 412.539 166.057 412.632 168.635C412.724 171.214 410.817 173.561 408.571 176.247C406.324 178.934 405.645 179.644 405.645 179.644C405.645 179.644 399.963 177.575 398.998 173.352C398.998 173.352 403.283 168.813 404.564 167.361C405.846 165.91 408.208 163.663 410.462 164.683Z" fill="#4580F7"/>
<path d="M381.125 66.9942L386.491 70.0822C386.46 69.8466 386.445 69.6094 386.445 69.3719V67.8279C386.445 65.0642 388.39 63.9679 390.783 65.3266C391.812 65.9616 392.694 66.8092 393.369 67.8125C393.763 64.3308 396.457 63.0415 399.808 64.9484C403.39 67.025 406.3 72.0585 406.3 76.1964V78.5124C406.324 79.4412 406.134 80.3631 405.744 81.2067L410.207 83.7774C410.906 84.2353 411.489 84.8511 411.907 85.5751C412.326 86.2992 412.568 87.1113 412.615 87.9462C412.615 89.4902 411.534 90.1078 410.207 89.3358L381.125 72.568C380.424 72.1115 379.841 71.4961 379.422 70.7717C379.004 70.0474 378.762 69.2345 378.717 68.3992C378.717 66.8475 379.798 66.2222 381.125 66.9942Z" fill="white"/>
<path d="M358.159 82.6053L362.204 84.9213C362.204 84.736 362.204 84.5585 362.204 84.3809V83.2074C362.204 81.123 363.671 80.2738 365.478 81.3238C366.258 81.7987 366.925 82.4391 367.431 83.1997C367.724 80.5749 369.747 79.5945 372.287 81.0381C373.715 81.9669 374.904 83.2204 375.756 84.6962C376.608 86.172 377.099 87.8284 377.189 89.5301V91.2826C377.206 91.9847 377.064 92.6817 376.772 93.3206L380.138 95.2584C380.666 95.6041 381.106 96.0694 381.421 96.6166C381.736 97.1638 381.918 97.7776 381.952 98.4081C381.952 99.5661 381.142 100.037 380.138 99.458L358.19 86.7818C357.661 86.4381 357.22 85.9745 356.903 85.4286C356.587 84.8827 356.403 84.2698 356.368 83.6398C356.337 82.5204 357.155 82.0494 358.159 82.6053Z" fill="white"/>
<defs>
<linearGradient id="paint0_linear_251_1572" x1="288" y1="5.48223e-06" x2="284.632" y2="388.046" gradientUnits="userSpaceOnUse">
<stop stop-color="#D3E1FF"/>
<stop offset="0.875" stop-color="white" stop-opacity="0"/>
</linearGradient>
</defs>
</svg>
