<svg width="20" height="20" viewBox="0 0 20 20" fill="none" xmlns="http://www.w3.org/2000/svg">
<path d="M12.5 6.66748V3.33415H4.16667V16.6675H15.8333V6.66748H12.5ZM2.5 2.49398C2.5 2.03752 2.87291 1.66748 3.33208 1.66748H13.3333L17.4998 5.83415L17.5 17.4946C17.5 17.9582 17.1292 18.3341 16.6722 18.3341H3.32783C2.87063 18.3341 2.5 17.9547 2.5 17.5076V2.49398ZM9.16667 7.91748C9.16667 8.60781 8.607 9.16748 7.91667 9.16748C7.22631 9.16748 6.66667 8.60781 6.66667 7.91748C6.66667 7.22712 7.22631 6.66748 7.91667 6.66748C8.607 6.66748 9.16667 7.22712 9.16667 7.91748ZM14.5833 14.1675L11.25 8.33415L6.66667 14.1675H14.5833Z" fill="#F59E0B"/>
</svg>
