<svg width="146" height="48" viewBox="0 0 146 48" fill="none" xmlns="http://www.w3.org/2000/svg">
<rect width="48" height="48" rx="14" fill="#ECF2FE"/>
<circle cx="24" cy="24" r="6" fill="#457CE8"/>
<path d="M30 30C30.7879 30 31.5681 29.8448 32.2961 29.5433C33.0241 29.2417 33.6855 28.7998 34.2426 28.2426C34.7998 27.6855 35.2417 27.0241 35.5433 26.2961C35.8448 25.5681 36 24.7879 36 24C36 23.2121 35.8448 22.4319 35.5433 21.7039C35.2417 20.9759 34.7998 20.3145 34.2426 19.7574C33.6855 19.2002 33.0241 18.7583 32.2961 18.4567C31.5681 18.1552 30.7879 18 30 18L30 24V30Z" fill="#457CE8"/>
<path d="M30 36C30.7879 36 31.5681 35.8448 32.2961 35.5433C33.0241 35.2417 33.6855 34.7998 34.2426 34.2426C34.7998 33.6855 35.2417 33.0241 35.5433 32.2961C35.8448 31.5681 36 30.7879 36 30L30 30V36Z" fill="#457CE8"/>
<path d="M30 12C30.7879 12 31.5681 12.1552 32.2961 12.4567C33.0241 12.7583 33.6855 13.2002 34.2426 13.7574C34.7998 14.3145 35.2417 14.9759 35.5433 15.7039C35.8448 16.4319 36 17.2121 36 18L30 18V12Z" fill="#457CE8"/>
<path d="M12 18C12 17.2121 12.1552 16.4319 12.4567 15.7039C12.7583 14.9759 13.2002 14.3145 13.7574 13.7574C14.3145 13.2002 14.9759 12.7583 15.7039 12.4567C16.4319 12.1552 17.2121 12 18 12L18 18H12Z" fill="#457CE8"/>
<path d="M18 36C17.2121 36 16.4319 35.8448 15.7039 35.5433C14.9759 35.2417 14.3145 34.7998 13.7574 34.2426C13.2002 33.6855 12.7583 33.0241 12.4567 32.2961C12.1552 31.5681 12 30.7879 12 30L18 30V36Z" fill="#457CE8"/>
<path d="M18 30C18 30.7879 18.1552 31.5681 18.4567 32.2961C18.7583 33.0241 19.2002 33.6855 19.7574 34.2426C20.3145 34.7998 20.9759 35.2417 21.7039 35.5433C22.4319 35.8448 23.2121 36 24 36C24.7879 36 25.5681 35.8448 26.2961 35.5433C27.0241 35.2417 27.6855 34.7998 28.2426 34.2426C28.7998 33.6855 29.2417 33.0241 29.5433 32.2961C29.8448 31.5681 30 30.7879 30 30L24 30H18Z" fill="#457CE8"/>
<path d="M18 30C17.2121 30 16.4319 29.8448 15.7039 29.5433C14.9759 29.2417 14.3145 28.7998 13.7574 28.2426C13.2002 27.6855 12.7583 27.0241 12.4567 26.2961C12.1552 25.5681 12 24.7879 12 24C12 23.2121 12.1552 22.4319 12.4567 21.7039C12.7583 20.9759 13.2002 20.3145 13.7574 19.7574C14.3145 19.2002 14.9759 18.7583 15.7039 18.4567C16.4319 18.1552 17.2121 18 18 18L18 24V30Z" fill="#457CE8"/>
<path d="M18 18C18 17.2121 18.1552 16.4319 18.4567 15.7039C18.7583 14.9759 19.2002 14.3145 19.7574 13.7574C20.3145 13.2002 20.9759 12.7583 21.7039 12.4567C22.4319 12.1552 23.2121 12 24 12C24.7879 12 25.5681 12.1552 26.2961 12.4567C27.0241 12.7583 27.6855 13.2002 28.2426 13.7574C28.7998 14.3145 29.2417 14.9759 29.5433 15.7039C29.8448 16.4319 30 17.2121 30 18L24 18H18Z" fill="#457CE8"/>
<path d="M76.7266 16V32H74.1484L66.6094 21.1016H66.4766V32H63.5781V16H66.1719L73.7031 26.9062H73.8438V16H76.7266ZM84.7741 32.2344C83.6023 32.2344 82.5866 31.9766 81.7273 31.4609C80.8679 30.9453 80.2012 30.224 79.7273 29.2969C79.2585 28.3698 79.0241 27.2865 79.0241 26.0469C79.0241 24.8073 79.2585 23.7214 79.7273 22.7891C80.2012 21.8568 80.8679 21.1328 81.7273 20.6172C82.5866 20.1016 83.6023 19.8438 84.7741 19.8438C85.946 19.8438 86.9616 20.1016 87.821 20.6172C88.6804 21.1328 89.3445 21.8568 89.8132 22.7891C90.2872 23.7214 90.5241 24.8073 90.5241 26.0469C90.5241 27.2865 90.2872 28.3698 89.8132 29.2969C89.3445 30.224 88.6804 30.9453 87.821 31.4609C86.9616 31.9766 85.946 32.2344 84.7741 32.2344ZM84.7898 29.9687C85.4252 29.9687 85.9564 29.7943 86.3835 29.4453C86.8106 29.0911 87.1283 28.6172 87.3366 28.0234C87.5502 27.4297 87.657 26.7682 87.657 26.0391C87.657 25.3047 87.5502 24.6406 87.3366 24.0469C87.1283 23.4479 86.8106 22.9714 86.3835 22.6172C85.9564 22.263 85.4252 22.0859 84.7898 22.0859C84.1387 22.0859 83.5971 22.263 83.1648 22.6172C82.7377 22.9714 82.4174 23.4479 82.2038 24.0469C81.9955 24.6406 81.8913 25.3047 81.8913 26.0391C81.8913 26.7682 81.9955 27.4297 82.2038 28.0234C82.4174 28.6172 82.7377 29.0911 83.1648 29.4453C83.5971 29.7943 84.1387 29.9687 84.7898 29.9687ZM97.1577 32.2109C96.2149 32.2109 95.3712 31.9688 94.6264 31.4844C93.8816 31 93.2931 30.2969 92.8608 29.375C92.4285 28.4531 92.2123 27.3333 92.2123 26.0156C92.2123 24.6823 92.4311 23.5573 92.8686 22.6406C93.3113 21.7187 93.9077 21.0234 94.6577 20.5547C95.4077 20.0807 96.2436 19.8438 97.1655 19.8438C97.8686 19.8438 98.4467 19.9635 98.8998 20.2031C99.353 20.4375 99.7123 20.7214 99.978 21.0547C100.244 21.3828 100.449 21.6927 100.595 21.9844H100.712V16H103.548V32H100.767V30.1094H100.595C100.449 30.401 100.238 30.7109 99.9623 31.0391C99.6863 31.362 99.3217 31.638 98.8686 31.8672C98.4155 32.0964 97.8452 32.2109 97.1577 32.2109ZM97.9467 29.8906C98.5457 29.8906 99.0561 29.7292 99.478 29.4062C99.8998 29.0781 100.22 28.6224 100.439 28.0391C100.658 27.4557 100.767 26.776 100.767 26C100.767 25.224 100.658 24.5495 100.439 23.9766C100.225 23.4036 99.9077 22.9583 99.4858 22.6406C99.0691 22.3229 98.5561 22.1641 97.9467 22.1641C97.3165 22.1641 96.7905 22.3281 96.3686 22.6562C95.9467 22.9844 95.629 23.4375 95.4155 24.0156C95.2019 24.5937 95.0952 25.2552 95.0952 26C95.0952 26.75 95.2019 27.4193 95.4155 28.0078C95.6342 28.5911 95.9545 29.0521 96.3764 29.3906C96.8035 29.724 97.3269 29.8906 97.9467 29.8906ZM111.576 32.2344C110.404 32.2344 109.389 31.9766 108.529 31.4609C107.67 30.9453 107.003 30.224 106.529 29.2969C106.061 28.3698 105.826 27.2865 105.826 26.0469C105.826 24.8073 106.061 23.7214 106.529 22.7891C107.003 21.8568 107.67 21.1328 108.529 20.6172C109.389 20.1016 110.404 19.8438 111.576 19.8438C112.748 19.8438 113.764 20.1016 114.623 20.6172C115.483 21.1328 116.147 21.8568 116.615 22.7891C117.089 23.7214 117.326 24.8073 117.326 26.0469C117.326 27.2865 117.089 28.3698 116.615 29.2969C116.147 30.224 115.483 30.9453 114.623 31.4609C113.764 31.9766 112.748 32.2344 111.576 32.2344ZM111.592 29.9687C112.227 29.9687 112.759 29.7943 113.186 29.4453C113.613 29.0911 113.93 28.6172 114.139 28.0234C114.352 27.4297 114.459 26.7682 114.459 26.0391C114.459 25.3047 114.352 24.6406 114.139 24.0469C113.93 23.4479 113.613 22.9714 113.186 22.6172C112.759 22.263 112.227 22.0859 111.592 22.0859C110.941 22.0859 110.399 22.263 109.967 22.6172C109.54 22.9714 109.22 23.4479 109.006 24.0469C108.798 24.6406 108.694 25.3047 108.694 26.0391C108.694 26.7682 108.798 27.4297 109.006 28.0234C109.22 28.6172 109.54 29.0911 109.967 29.4453C110.399 29.7943 110.941 29.9687 111.592 29.9687ZM126.923 32H123.83L129.463 16H133.041L138.681 32H135.588L131.314 19.2812H131.189L126.923 32ZM127.025 25.7266H135.463V28.0547H127.025V25.7266ZM143.467 16V32H140.569V16H143.467Z" fill="black"/>
</svg>
