<svg width="16" height="16" viewBox="0 0 16 16" fill="none" xmlns="http://www.w3.org/2000/svg">
<path d="M5.33449 4.66659C5.34256 3.21657 5.40686 2.43129 5.91912 1.91904C6.5049 1.33325 7.44771 1.33325 9.33333 1.33325H10C11.8856 1.33325 12.8284 1.33325 13.4142 1.91904C14 2.50482 14 3.44763 14 5.33325V10.6666C14 12.5522 14 13.495 13.4142 14.0808C12.8284 14.6666 11.8856 14.6666 10 14.6666H9.33333C7.44771 14.6666 6.5049 14.6666 5.91912 14.0808C5.40686 13.5685 5.34256 12.7833 5.33449 11.3333" stroke="#FF3636" stroke-width="1.5" stroke-linecap="round"/>
<path d="M5.33333 13C3.76198 13 2.97631 13 2.48816 12.5118C2 12.0237 2 11.238 2 9.66667V6.33333C2 4.76199 2 3.97631 2.48816 3.48816C2.97631 3 3.76198 3 5.33333 3" stroke="#FF3636" stroke-width="1.5"/>
<path d="M10 8.00008L4 8.00008M4 8.00008L5.33333 9.33341M4 8.00008L5.33333 6.66675" stroke="#FF3636" stroke-width="1.5" stroke-linecap="round" stroke-linejoin="round"/>
</svg>
