<svg width="48" height="48" viewBox="0 0 48 48" fill="none" xmlns="http://www.w3.org/2000/svg">
<rect width="48" height="48" rx="14" fill="#ECF2FE"/>
<circle cx="24" cy="24" r="6" fill="#457CE8"/>
<path d="M30 30C30.7879 30 31.5681 29.8448 32.2961 29.5433C33.0241 29.2417 33.6855 28.7998 34.2426 28.2426C34.7998 27.6855 35.2417 27.0241 35.5433 26.2961C35.8448 25.5681 36 24.7879 36 24C36 23.2121 35.8448 22.4319 35.5433 21.7039C35.2417 20.9759 34.7998 20.3145 34.2426 19.7574C33.6855 19.2002 33.0241 18.7583 32.2961 18.4567C31.5681 18.1552 30.7879 18 30 18L30 24V30Z" fill="#457CE8"/>
<path d="M30 36C30.7879 36 31.5681 35.8448 32.2961 35.5433C33.0241 35.2417 33.6855 34.7998 34.2426 34.2426C34.7998 33.6855 35.2417 33.0241 35.5433 32.2961C35.8448 31.5681 36 30.7879 36 30L30 30V36Z" fill="#457CE8"/>
<path d="M30 12C30.7879 12 31.5681 12.1552 32.2961 12.4567C33.0241 12.7583 33.6855 13.2002 34.2426 13.7574C34.7998 14.3145 35.2417 14.9759 35.5433 15.7039C35.8448 16.4319 36 17.2121 36 18L30 18V12Z" fill="#457CE8"/>
<path d="M12 18C12 17.2121 12.1552 16.4319 12.4567 15.7039C12.7583 14.9759 13.2002 14.3145 13.7574 13.7574C14.3145 13.2002 14.9759 12.7583 15.7039 12.4567C16.4319 12.1552 17.2121 12 18 12L18 18H12Z" fill="#457CE8"/>
<path d="M18 36C17.2121 36 16.4319 35.8448 15.7039 35.5433C14.9759 35.2417 14.3145 34.7998 13.7574 34.2426C13.2002 33.6855 12.7583 33.0241 12.4567 32.2961C12.1552 31.5681 12 30.7879 12 30L18 30V36Z" fill="#457CE8"/>
<path d="M18 30C18 30.7879 18.1552 31.5681 18.4567 32.2961C18.7583 33.0241 19.2002 33.6855 19.7574 34.2426C20.3145 34.7998 20.9759 35.2417 21.7039 35.5433C22.4319 35.8448 23.2121 36 24 36C24.7879 36 25.5681 35.8448 26.2961 35.5433C27.0241 35.2417 27.6855 34.7998 28.2426 34.2426C28.7998 33.6855 29.2417 33.0241 29.5433 32.2961C29.8448 31.5681 30 30.7879 30 30L24 30H18Z" fill="#457CE8"/>
<path d="M18 30C17.2121 30 16.4319 29.8448 15.7039 29.5433C14.9759 29.2417 14.3145 28.7998 13.7574 28.2426C13.2002 27.6855 12.7583 27.0241 12.4567 26.2961C12.1552 25.5681 12 24.7879 12 24C12 23.2121 12.1552 22.4319 12.4567 21.7039C12.7583 20.9759 13.2002 20.3145 13.7574 19.7574C14.3145 19.2002 14.9759 18.7583 15.7039 18.4567C16.4319 18.1552 17.2121 18 18 18L18 24V30Z" fill="#457CE8"/>
<path d="M18 18C18 17.2121 18.1552 16.4319 18.4567 15.7039C18.7583 14.9759 19.2002 14.3145 19.7574 13.7574C20.3145 13.2002 20.9759 12.7583 21.7039 12.4567C22.4319 12.1552 23.2121 12 24 12C24.7879 12 25.5681 12.1552 26.2961 12.4567C27.0241 12.7583 27.6855 13.2002 28.2426 13.7574C28.7998 14.3145 29.2417 14.9759 29.5433 15.7039C29.8448 16.4319 30 17.2121 30 18L24 18H18Z" fill="#457CE8"/>
</svg>
