<svg width="20" height="20" viewBox="0 0 20 20" fill="none" xmlns="http://www.w3.org/2000/svg">
<path d="M15.6243 8.08968V7.50251C15.6243 4.27856 13.1062 1.66504 10 1.66504C6.8938 1.66504 4.37573 4.27856 4.37573 7.50251V8.08968C4.37573 8.79434 4.17476 9.48323 3.79817 10.0695L2.8753 11.5063C2.03235 12.8187 2.67587 14.6025 4.14197 15.0175C7.97728 16.1031 12.0227 16.1031 15.858 15.0175C17.3241 14.6025 17.9676 12.8187 17.1247 11.5063L16.2018 10.0695C15.8252 9.48323 15.6243 8.79434 15.6243 8.08968Z" stroke="#1B3249" stroke-width="1.5"/>
<path d="M6.25 15.835C6.79586 17.2915 8.26871 18.335 10 18.335C11.7313 18.335 13.2041 17.2915 13.75 15.835" stroke="#1B3249" stroke-width="1.5" stroke-linecap="round"/>
</svg>
