<svg width="20" height="20" viewBox="0 0 20 20" fill="none" xmlns="http://www.w3.org/2000/svg">
<rect width="12" height="10" transform="translate(4 5)" fill="#FF9500"/>
<path d="M10.0003 1.66406C5.40866 1.66406 1.66699 5.40573 1.66699 9.9974C1.66699 14.5891 5.40866 18.3307 10.0003 18.3307C14.592 18.3307 18.3337 14.5891 18.3337 9.9974C18.3337 5.40573 14.592 1.66406 10.0003 1.66406ZM13.6253 12.9724C13.5087 13.1724 13.3003 13.2807 13.0837 13.2807C12.9753 13.2807 12.867 13.2557 12.767 13.1891L10.1837 11.6474C9.54199 11.2641 9.06699 10.4224 9.06699 9.68073V6.26406C9.06699 5.9224 9.35033 5.63906 9.69199 5.63906C10.0337 5.63906 10.317 5.9224 10.317 6.26406V9.68073C10.317 9.98073 10.567 10.4224 10.8253 10.5724L13.4087 12.1141C13.7087 12.2891 13.8087 12.6724 13.6253 12.9724Z" fill="#FFECC8"/>
</svg>
