<svg width="20" height="20" viewBox="0 0 20 20" fill="none" xmlns="http://www.w3.org/2000/svg">
<path d="M12.5 6.66797V3.33464H4.16667V16.668H15.8333V6.66797H12.5ZM2.5 2.49447C2.5 2.03801 2.87291 1.66797 3.33208 1.66797H13.3333L17.4998 5.83464L17.5 17.4951C17.5 17.9587 17.1292 18.3346 16.6722 18.3346H3.32783C2.87063 18.3346 2.5 17.9552 2.5 17.5081V2.49447ZM9.16667 7.91797C9.16667 8.6083 8.607 9.16797 7.91667 9.16797C7.22631 9.16797 6.66667 8.6083 6.66667 7.91797C6.66667 7.22761 7.22631 6.66797 7.91667 6.66797C8.607 6.66797 9.16667 7.22761 9.16667 7.91797ZM14.5833 14.168L11.25 8.33464L6.66667 14.168H14.5833Z" fill="#F59E0B"/>
</svg>
