<svg width="24" height="24" viewBox="0 0 24 24" fill="none" xmlns="http://www.w3.org/2000/svg">
<path fill-rule="evenodd" clip-rule="evenodd" d="M1.67511 11.3318C1.41526 11.4567 1.25 11.7195 1.25 12.0078C1.25 12.7431 1.32394 13.462 1.46503 14.157C2.46112 19.0641 6.79837 22.7578 12 22.7578C17.9371 22.7578 22.75 17.9449 22.75 12.0078C22.75 6.07075 17.9371 1.25781 12 1.25781C7.59065 1.25781 3.80298 3.9124 2.14482 7.70753C1.97898 8.0871 2.15224 8.52924 2.53181 8.69508C2.91137 8.86091 3.35351 8.68765 3.51935 8.30809C4.94742 5.0396 8.20808 2.75781 12 2.75781C17.1086 2.75781 21.25 6.89918 21.25 12.0078C21.25 17.1164 17.1086 21.2578 12 21.2578C7.84953 21.2578 4.33622 18.5236 3.16544 14.7578H4.5C4.81852 14.7578 5.10229 14.5566 5.20772 14.2561C5.31315 13.9555 5.21724 13.6211 4.96852 13.4222L2.46852 11.4222C2.24339 11.2421 1.93496 11.2069 1.67511 11.3318Z" fill="#1B3249"/>
</svg>
