<svg width="20" height="20" viewBox="0 0 20 20" fill="none" xmlns="http://www.w3.org/2000/svg">
<rect width="12" height="10" transform="translate(4 5)" fill="#FF5454"/>
<path d="M10.0003 1.66406C5.40866 1.66406 1.66699 5.40573 1.66699 9.9974C1.66699 14.5891 5.40866 18.3307 10.0003 18.3307C14.592 18.3307 18.3337 14.5891 18.3337 9.9974C18.3337 5.40573 14.592 1.66406 10.0003 1.66406ZM12.8003 11.9141C13.042 12.1557 13.042 12.5557 12.8003 12.7974C12.6753 12.9224 12.517 12.9807 12.3587 12.9807C12.2003 12.9807 12.042 12.9224 11.917 12.7974L10.0003 10.8807L8.08366 12.7974C7.95866 12.9224 7.80033 12.9807 7.64199 12.9807C7.48366 12.9807 7.32533 12.9224 7.20033 12.7974C6.95866 12.5557 6.95866 12.1557 7.20033 11.9141L9.11699 9.9974L7.20033 8.08073C6.95866 7.83906 6.95866 7.43906 7.20033 7.1974C7.44199 6.95573 7.84199 6.95573 8.08366 7.1974L10.0003 9.11406L11.917 7.1974C12.1587 6.95573 12.5587 6.95573 12.8003 7.1974C13.042 7.43906 13.042 7.83906 12.8003 8.08073L10.8837 9.9974L12.8003 11.9141Z" fill="#FDDFD9"/>
</svg>
