<svg width="20" height="20" viewBox="0 0 20 20" fill="none" xmlns="http://www.w3.org/2000/svg">
<path fill-rule="evenodd" clip-rule="evenodd" d="M1.7243 4.38183C1.6665 4.68813 1.6665 5.05585 1.6665 5.79129V7.70817H18.2941C18.2339 6.83415 18.0809 6.26047 17.6919 5.82803C17.633 5.76245 17.5706 5.70004 17.505 5.64106C16.792 4.99984 15.6952 4.99984 13.5016 4.99984H13.1902C12.2288 4.99984 11.7481 4.99984 11.3001 4.87215C11.0541 4.80201 10.8169 4.70376 10.5933 4.57936C10.1862 4.35289 9.84632 4.01299 9.1665 3.33317L8.70796 2.87463C8.48011 2.64678 8.36618 2.53285 8.24646 2.4336C7.73027 2.0057 7.09705 1.74341 6.42948 1.68098C6.27464 1.6665 6.11352 1.6665 5.79129 1.6665C5.05585 1.6665 4.68813 1.6665 4.38183 1.7243C3.03343 1.9787 1.9787 3.03343 1.7243 4.38183ZM18.3313 8.95817H1.6665V11.6665C1.6665 14.8092 1.6665 16.3805 2.64281 17.3569C3.61913 18.3332 5.19047 18.3332 8.33317 18.3332H11.6665C14.8092 18.3332 16.3805 18.3332 17.3569 17.3569C18.3332 16.3805 18.3332 14.8092 18.3332 11.6665V9.83142C18.3332 9.51874 18.3313 8.95817 18.3313 8.95817Z" fill="white"/>
</svg>
