<svg width="20" height="20" viewBox="0 0 20 20" fill="none" xmlns="http://www.w3.org/2000/svg">
<path d="M12.6667 2.5C13.1063 2.50626 13.5256 2.68598 13.8333 3L17 6.16667C17.314 6.47438 17.4937 6.89372 17.5 7.33333V15.8333C17.5 16.2754 17.3244 16.6993 17.0118 17.0118C16.6993 17.3244 16.2754 17.5 15.8333 17.5H4.16667C3.72464 17.5 3.30072 17.3244 2.98816 17.0118C2.67559 16.6993 2.5 16.2754 2.5 15.8333V4.16667C2.5 3.72464 2.67559 3.30072 2.98816 2.98816C3.30072 2.67559 3.72464 2.5 4.16667 2.5H12.6667Z" stroke="#5B6871" stroke-width="1.66667" stroke-linecap="round" stroke-linejoin="round"/>
<path d="M14.1663 17.5026V11.6693C14.1663 11.4483 14.0785 11.2363 13.9223 11.08C13.766 10.9237 13.554 10.8359 13.333 10.8359H6.66634C6.44533 10.8359 6.23337 10.9237 6.07709 11.08C5.92081 11.2363 5.83301 11.4483 5.83301 11.6693V17.5026" stroke="#5B6871" stroke-width="1.66667" stroke-linecap="round" stroke-linejoin="round"/>
<path d="M5.83301 2.5V5.83333C5.83301 6.05435 5.92081 6.26631 6.07709 6.42259C6.23337 6.57887 6.44533 6.66667 6.66634 6.66667H12.4997" stroke="#5B6871" stroke-width="1.66667" stroke-linecap="round" stroke-linejoin="round"/>
</svg>
