<svg width="20" height="20" viewBox="0 0 20 20" fill="none" xmlns="http://www.w3.org/2000/svg">
<path fill-rule="evenodd" clip-rule="evenodd" d="M9.37501 2.0835C5.34793 2.0835 2.08334 5.34809 2.08334 9.37516C2.08334 13.4022 5.34793 16.6668 9.37501 16.6668C13.4021 16.6668 16.6667 13.4022 16.6667 9.37516C16.6667 5.34809 13.4021 2.0835 9.37501 2.0835ZM0.833344 9.37516C0.833344 4.65773 4.65758 0.833496 9.37501 0.833496C14.0924 0.833496 17.9167 4.65773 17.9167 9.37516C17.9167 11.5089 17.1343 13.4599 15.8407 14.957L18.567 17.6832C18.811 17.9273 18.811 18.323 18.567 18.5671C18.3229 18.8112 17.9271 18.8112 17.6831 18.5671L14.9568 15.8409C13.4598 17.1344 11.5088 17.9168 9.37501 17.9168C4.65758 17.9168 0.833344 14.0926 0.833344 9.37516Z" fill="#1B3249" fill-opacity="0.64"/>
</svg>
