<svg width="20" height="20" viewBox="0 0 20 20" fill="none" xmlns="http://www.w3.org/2000/svg">
<path fill-rule="evenodd" clip-rule="evenodd" d="M12.603 4.06657C12.6137 4.0761 12.6244 4.08564 12.6352 4.09521L15.9801 7.06841C16.6042 7.62315 17.1216 8.08302 17.4768 8.50049C17.8502 8.93924 18.116 9.41161 18.116 9.99615C18.116 10.5807 17.8502 11.0531 17.4768 11.4918C17.1216 11.9093 16.6042 12.3691 15.9801 12.9239L12.6352 15.8971C12.6244 15.9067 12.6137 15.9162 12.603 15.9257C12.3326 16.1661 12.0803 16.3905 11.8623 16.5344C11.6483 16.6757 11.259 16.881 10.8229 16.6852C10.3869 16.4894 10.2817 16.0621 10.2451 15.8082C10.2079 15.5496 10.2079 15.212 10.208 14.8502C10.208 14.8359 10.208 14.8215 10.208 14.8071V13.5C8.99843 13.5834 7.7727 13.9046 6.70053 14.427C5.43974 15.0414 4.43284 15.9125 3.88638 16.9533C3.75272 17.2079 3.46259 17.3385 3.1834 17.2696C2.90421 17.2008 2.70801 16.9504 2.70801 16.6628C2.70801 12.7287 3.85915 10.167 5.50509 8.59218C6.93976 7.21948 8.6883 6.6562 10.208 6.53832V5.18518C10.208 5.17078 10.208 5.15642 10.208 5.14209C10.2079 4.78031 10.2079 4.44266 10.2451 4.18412C10.2817 3.93023 10.3869 3.5029 10.8229 3.30708C11.259 3.11126 11.6483 3.31656 11.8623 3.4579C12.0803 3.60182 12.3326 3.82618 12.603 4.06657ZM11.4606 4.72695C11.5548 4.80769 11.6673 4.90728 11.8048 5.02947L15.115 7.97191C15.7826 8.56531 16.233 8.96764 16.5248 9.31057C16.8051 9.6399 16.866 9.83224 16.866 9.99615C16.866 10.1601 16.8051 10.3524 16.5248 10.6817C16.233 11.0247 15.7826 11.427 15.115 12.0204L11.8048 14.9628C11.6673 15.085 11.5548 15.1846 11.4606 15.2653C11.4583 15.1413 11.458 14.991 11.458 14.8071V12.8533C11.458 12.5081 11.1782 12.2283 10.833 12.2283C9.2392 12.2283 7.58297 12.6066 6.15299 13.3033C5.38731 13.6764 4.67451 14.147 4.06961 14.7101C4.37692 12.171 5.28502 10.5328 6.36926 9.49535C7.7193 8.20362 9.42503 7.764 10.833 7.764C11.1782 7.764 11.458 7.48418 11.458 7.139V5.18518C11.458 5.00126 11.4583 4.85101 11.4606 4.72695Z" fill="#5B6871"/>
</svg>
