<svg width="20" height="20" viewBox="0 0 20 20" fill="none" xmlns="http://www.w3.org/2000/svg">
<path d="M15.7018 11.1469C16.6396 11.1469 17.4856 11.5239 18.111 12.1312L16.1404 4.31516C15.7018 2.95379 14.9163 2.5 13.9474 2.5H6.05263C5.08371 2.5 4.29824 2.95379 3.85965 4.31516L1.88896 12.1312C2.51445 11.5239 3.3604 11.1469 4.29824 11.1469H15.7018Z" fill="#1A52C0"/>
<path fill-rule="evenodd" clip-rule="evenodd" d="M4.29824 12.0041C3.32583 12.0041 2.46462 12.557 2.00728 13.3991C1.79098 13.7973 1.66667 14.2585 1.66667 14.752C1.66667 16.2931 2.86815 17.5 4.29824 17.5H15.7018C17.1319 17.5 18.3333 16.2931 18.3333 14.752C18.3333 14.2585 18.209 13.7973 17.9927 13.3991C17.5354 12.557 16.6742 12.0041 15.7018 12.0041H4.29824ZM9.3421 14.5002C9.3421 14.1452 9.04755 13.8574 8.68421 13.8574C8.32086 13.8574 8.02632 14.1452 8.02632 14.5002V15.3574C8.02632 15.7124 8.32086 16.0003 8.68421 16.0003C9.04755 16.0003 9.3421 15.7124 9.3421 15.3574V14.5002ZM10.8772 13.8574C11.2405 13.8574 11.5351 14.1452 11.5351 14.5002V15.3574C11.5351 15.7124 11.2405 16.0003 10.8772 16.0003C10.5138 16.0003 10.2193 15.7124 10.2193 15.3574V14.5002C10.2193 14.1452 10.5138 13.8574 10.8772 13.8574ZM13.7281 14.5002C13.7281 14.1452 13.4335 13.8574 13.0702 13.8574C12.7068 13.8574 12.4123 14.1452 12.4123 14.5002V15.3574C12.4123 15.7124 12.7068 16.0003 13.0702 16.0003C13.4335 16.0003 13.7281 15.7124 13.7281 15.3574V14.5002ZM15.9211 14.5002C15.9211 14.1452 15.6265 13.8574 15.2632 13.8574C14.8998 13.8574 14.6053 14.1452 14.6053 14.5002V15.3574C14.6053 15.7124 14.8998 16.0003 15.2632 16.0003C15.6265 16.0003 15.9211 15.7124 15.9211 15.3574V14.5002Z" fill="#1A52C0"/>
</svg>
