<svg width="16" height="16" viewBox="0 0 16 16" fill="none" xmlns="http://www.w3.org/2000/svg">
<path d="M4.96856 1.80812C5.2184 1.17464 6.11493 1.17464 6.36477 1.80812L7.13901 3.77122C7.21529 3.96463 7.36838 4.11772 7.56179 4.194L9.52489 4.96823C10.1584 5.21808 10.1584 6.11461 9.52489 6.36445L7.56179 7.13868C7.36838 7.21496 7.21529 7.36806 7.13901 7.56146L6.36477 9.52456C6.11493 10.158 5.2184 10.158 4.96856 9.52456L4.19432 7.56146C4.11804 7.36806 3.96495 7.21496 3.77154 7.13868L1.80844 6.36445C1.17496 6.11461 1.17496 5.21808 1.80844 4.96823L3.77155 4.194C3.96495 4.11772 4.11804 3.96463 4.19432 3.77122L4.96856 1.80812Z" fill="#FF9500"/>
<path d="M11.283 8.92809C11.4203 8.57996 11.913 8.57996 12.0503 8.92809L12.6508 10.4506C12.6927 10.5568 12.7768 10.641 12.8831 10.6829L14.4056 11.2833C14.7537 11.4206 14.7537 11.9133 14.4056 12.0506L12.8831 12.6511C12.7768 12.693 12.6927 12.7771 12.6508 12.8834L12.0503 14.4059C11.913 14.754 11.4203 14.754 11.283 14.4059L10.6826 12.8834C10.6407 12.7771 10.5565 12.693 10.4502 12.6511L8.92777 12.0506C8.57964 11.9133 8.57964 11.4206 8.92777 11.2833L10.4502 10.6829C10.5565 10.641 10.6407 10.5568 10.6826 10.4506L11.283 8.92809Z" fill="#FF9500"/>
</svg>
