<svg width="16" height="16" viewBox="0 0 16 16" fill="none" xmlns="http://www.w3.org/2000/svg">
<path d="M12.0464 5.67245L6.33969 2.81911C2.50635 0.899113 0.933021 2.47245 2.85302 6.30578L3.43302 7.46578C3.59969 7.80578 3.59969 8.19911 3.43302 8.53911L2.85302 9.69245C0.933021 13.5258 2.49969 15.0991 6.33969 13.1791L12.0464 10.3258C14.6064 9.04578 14.6064 6.95245 12.0464 5.67245ZM9.89302 8.49911H6.29302C6.01969 8.49911 5.79302 8.27245 5.79302 7.99911C5.79302 7.72578 6.01969 7.49911 6.29302 7.49911H9.89302C10.1664 7.49911 10.393 7.72578 10.393 7.99911C10.393 8.27245 10.1664 8.49911 9.89302 8.49911Z" fill="white"/>
</svg>
