<svg width="16" height="16" viewBox="0 0 16 16" fill="none" xmlns="http://www.w3.org/2000/svg">
<path d="M2 6.66683C2 4.15267 2 2.89559 2.78105 2.11454C3.5621 1.3335 4.81918 1.3335 7.33333 1.3335H8.66667C11.1808 1.3335 12.4379 1.3335 13.219 2.11454C14 2.89559 14 4.15267 14 6.66683V9.3335C14 11.8477 14 13.1047 13.219 13.8858C12.4379 14.6668 11.1808 14.6668 8.66667 14.6668H7.33333C4.81918 14.6668 3.5621 14.6668 2.78105 13.8858C2 13.1047 2 11.8477 2 9.3335V6.66683Z" stroke="#1B3249" stroke-width="1.5"/>
<path d="M5.3335 8H10.6668" stroke="#1B3249" stroke-width="1.5" stroke-linecap="round"/>
<path d="M5.3335 5.3335H10.6668" stroke="#1B3249" stroke-width="1.5" stroke-linecap="round"/>
<path d="M5.3335 10.6665H8.66683" stroke="#1B3249" stroke-width="1.5" stroke-linecap="round"/>
</svg>
