<svg width="50" height="50" viewBox="0 0 50 50" fill="none" xmlns="http://www.w3.org/2000/svg">
<rect x="0.5" y="0.5" width="49" height="49" rx="24.5" fill="white"/>
<rect x="0.5" y="0.5" width="49" height="49" rx="24.5" stroke="#E5E7EB"/>
<path fill-rule="evenodd" clip-rule="evenodd" d="M24.4697 28.9697C24.7626 28.6768 25.2374 28.6768 25.5303 28.9697L27.5303 30.9697C27.8232 31.2626 27.8232 31.7374 27.5303 32.0303C27.2374 32.3232 26.7626 32.3232 26.4697 32.0303L25.75 31.3107V35.5C25.75 35.9142 25.4142 36.25 25 36.25C24.5858 36.25 24.25 35.9142 24.25 35.5V31.3107L23.5303 32.0303C23.2374 32.3232 22.7626 32.3232 22.4697 32.0303C22.1768 31.7374 22.1768 31.2626 22.4697 30.9697L24.4697 28.9697Z" fill="#437EF7"/>
<path d="M25.4762 17.25C22.7261 17.25 20.5119 19.4508 20.5119 22.1471C20.5119 22.6092 20.5766 23.0555 20.6973 23.4781C21.1945 23.6216 21.6599 23.8389 22.0805 24.1171C22.4259 24.3456 22.5207 24.8109 22.2922 25.1564C22.0637 25.5019 21.5983 25.5967 21.2529 25.3681C20.8721 25.1162 20.4392 24.9355 19.9733 24.8451C19.7515 24.8021 19.5216 24.7794 19.2857 24.7794C17.3246 24.7794 15.75 26.3482 15.75 28.2647C15.75 30.1812 17.3246 31.75 19.2857 31.75C19.6999 31.75 20.0357 32.0858 20.0357 32.5C20.0357 32.9142 19.6999 33.25 19.2857 33.25C16.513 33.25 14.25 31.0264 14.25 28.2647C14.25 25.5605 16.4199 23.3721 19.1135 23.2823C19.0467 22.9136 19.0119 22.5341 19.0119 22.1471C19.0119 18.6057 21.9145 15.75 25.4762 15.75C28.6343 15.75 31.2724 17.9937 31.8314 20.9713C34.1313 21.9475 35.75 24.2093 35.75 26.8529C35.75 29.9269 33.5623 32.4843 30.6568 33.1057C30.2518 33.1923 29.8532 32.9341 29.7666 32.5291C29.68 32.124 29.9381 31.7254 30.3432 31.6388C32.5829 31.1598 34.25 29.193 34.25 26.8529C34.25 24.7162 32.8607 22.8909 30.9124 22.2246C30.4038 22.0507 29.8568 21.9559 29.2857 21.9559C28.7031 21.9559 28.1455 22.0546 27.6283 22.2353C27.2372 22.3718 26.8095 22.1656 26.6729 21.7745C26.5363 21.3835 26.7426 20.9557 27.1336 20.8192C27.8079 20.5836 28.5326 20.4559 29.2857 20.4559C29.5812 20.4559 29.8723 20.4755 30.1577 20.5137C29.477 18.6163 27.6422 17.25 25.4762 17.25Z" fill="#437EF7"/>
</svg>
