<svg width="13" height="18" viewBox="0 0 13 18" fill="none" xmlns="http://www.w3.org/2000/svg">
<path fill-rule="evenodd" clip-rule="evenodd" d="M6.45833 0C4.27221 0 2.5 1.77221 2.5 3.95833C2.5 6.14446 4.27221 7.91667 6.45833 7.91667C8.64446 7.91667 10.4167 6.14446 10.4167 3.95833C10.4167 1.77221 8.64446 0 6.45833 0ZM3.75 3.95833C3.75 2.46256 4.96256 1.25 6.45833 1.25C7.9541 1.25 9.16667 2.46256 9.16667 3.95833C9.16667 5.4541 7.9541 6.66667 6.45833 6.66667C4.96256 6.66667 3.75 5.4541 3.75 3.95833Z" fill="#353434"/>
<path fill-rule="evenodd" clip-rule="evenodd" d="M6.45833 9.16667C4.75889 9.16667 3.1896 9.55896 2.02346 10.2253C0.874997 10.8816 0 11.8834 0 13.125C0 14.3666 0.874997 15.3684 2.02346 16.0247C3.1896 16.691 4.75889 17.0833 6.45833 17.0833C8.15778 17.0833 9.72707 16.691 10.8932 16.0247C12.0417 15.3684 12.9167 14.3666 12.9167 13.125C12.9167 11.8834 12.0417 10.8816 10.8932 10.2253C9.72707 9.55896 8.15778 9.16667 6.45833 9.16667ZM1.25 13.125C1.25 12.5256 1.68084 11.8608 2.64363 11.3106C3.58874 10.7706 4.93612 10.4167 6.45833 10.4167C7.98055 10.4167 9.32792 10.7706 10.273 11.3106C11.2358 11.8608 11.6667 12.5256 11.6667 13.125C11.6667 13.7244 11.2358 14.3892 10.273 14.9394C9.32792 15.4794 7.98055 15.8333 6.45833 15.8333C4.93612 15.8333 3.58874 15.4794 2.64363 14.9394C1.68084 14.3892 1.25 13.7244 1.25 13.125Z" fill="#353434"/>
</svg>
