<svg width="16" height="16" viewBox="0 0 16 16" fill="none" xmlns="http://www.w3.org/2000/svg">
<path d="M2.56302 2.56269C1.81233 3.31338 1.81233 4.53049 2.56302 5.28118L3.62151 6.33968C3.62946 6.33048 3.63779 6.32151 3.64652 6.31279L6.31319 3.64612C6.32189 3.63742 6.33083 3.62911 6.34 3.62118L5.28151 2.56269C4.53082 1.812 3.31371 1.812 2.56302 2.56269Z" fill="#4F4FFF"/>
<path d="M7.04524 4.32642C7.03731 4.33558 7.029 4.34453 7.0203 4.35323L4.35363 7.01989C4.3449 7.02862 4.33593 7.03696 4.32674 7.04491L10.7185 13.4367C11.4692 14.1873 12.6863 14.1873 13.437 13.4367C14.1877 12.686 14.1877 11.4689 13.437 10.7182L7.04524 4.32642Z" fill="#4F4FFF"/>
<path d="M10.7334 1.5378C10.8407 1.26474 11.2257 1.26474 11.333 1.5378L11.6199 2.26799C11.6526 2.35136 11.7184 2.41735 11.8015 2.45023L12.529 2.73821C12.801 2.8459 12.801 3.23234 12.529 3.34004L11.8015 3.62802C11.7184 3.6609 11.6526 3.72689 11.6199 3.81025L11.333 4.54044C11.2257 4.8135 10.8407 4.8135 10.7334 4.54044L10.4464 3.81025C10.4137 3.72689 10.3479 3.6609 10.2649 3.62802L9.53737 3.34004C9.26532 3.23234 9.26532 2.8459 9.53737 2.73821L10.2649 2.45023C10.3479 2.41735 10.4137 2.35136 10.4464 2.26799L10.7334 1.5378Z" fill="#4F4FFF"/>
<path d="M13.3115 6.08598C13.4188 5.81292 13.8038 5.81292 13.9111 6.08598L14.0157 6.35221C14.0484 6.43557 14.1142 6.50156 14.1972 6.53444L14.4625 6.63944C14.7345 6.74714 14.7345 7.13358 14.4625 7.24127L14.1972 7.34627C14.1142 7.37915 14.0484 7.44514 14.0157 7.52851L13.9111 7.79474C13.8038 8.06779 13.4188 8.06779 13.3115 7.79474L13.2068 7.52851C13.1741 7.44514 13.1083 7.37915 13.0253 7.34627L12.76 7.24127C12.488 7.13358 12.488 6.74714 12.76 6.63944L13.0253 6.53444C13.1083 6.50156 13.1741 6.43557 13.2068 6.35221L13.3115 6.08598Z" fill="#4F4FFF"/>
<path d="M3.42213 10.2045C3.52943 9.93141 3.91445 9.93141 4.02174 10.2045L4.12635 10.4707C4.15911 10.5541 4.22486 10.6201 4.30792 10.6529L4.57317 10.7579C4.84522 10.8656 4.84522 11.2521 4.57317 11.3598L4.30792 11.4648C4.22486 11.4976 4.15911 11.5636 4.12635 11.647L4.02174 11.9132C3.91445 12.1863 3.52943 12.1863 3.42213 11.9132L3.31752 11.647C3.28476 11.5636 3.21901 11.4976 3.13595 11.4648L2.8707 11.3598C2.59865 11.2521 2.59865 10.8656 2.8707 10.7579L3.13595 10.6529C3.21901 10.6201 3.28476 10.5541 3.31752 10.4707L3.42213 10.2045Z" fill="#4F4FFF"/>
</svg>
